<svg width="171" height="59" viewBox="0 0 171 59" fill="none" xmlns="http://www.w3.org/2000/svg">
<rect x="0.514535" y="0.514535" width="169.114" height="57.9709" rx="9.09012" stroke="white" stroke-width="1.02907"/>
<path d="M36.914 24.5348C36.7307 24.6753 33.4943 26.4764 33.4943 30.4813C33.4943 35.1136 37.6125 36.7524 37.7358 36.793C37.7168 36.8929 37.0815 39.0373 35.5645 41.2224C34.2118 43.1452 32.799 45.065 30.6498 45.065C28.5007 45.065 27.9476 43.832 25.4666 43.832C23.0488 43.832 22.1891 45.1056 20.2232 45.1056C18.2574 45.1056 16.8857 43.3263 15.3086 41.1412C13.4818 38.5753 12.0059 34.5892 12.0059 30.8059C12.0059 24.7377 16.0008 21.5194 19.9325 21.5194C22.0216 21.5194 23.763 22.8741 25.0747 22.8741C26.3231 22.8741 28.27 21.4382 30.6467 21.4382C31.5474 21.4382 34.7838 21.5194 36.914 24.5348ZM29.5184 18.8692C30.5013 17.7174 31.1966 16.1192 31.1966 14.521C31.1966 14.2994 31.1777 14.0746 31.1366 13.8936C29.5373 13.9529 27.6347 14.9455 26.4874 16.2597C25.5867 17.271 24.746 18.8692 24.746 20.4893C24.746 20.7328 24.7871 20.9763 24.806 21.0543C24.9072 21.073 25.0715 21.0949 25.2359 21.0949C26.6707 21.0949 28.4754 20.1459 29.5184 18.8692Z" fill="white"/>
<path d="M47.5806 20.5752C47.4976 20.5752 47.4271 20.5462 47.3691 20.4881C47.311 20.43 47.282 20.3595 47.282 20.2766V12.1769C47.282 12.0857 47.311 12.0111 47.3691 11.953C47.4271 11.8949 47.4976 11.8659 47.5806 11.8659H50.6164C51.4542 11.8659 52.1426 11.9945 52.6818 12.2516C53.2292 12.5087 53.6398 12.8903 53.9135 13.3962C54.1955 13.9022 54.3407 14.5202 54.349 15.2501C54.3656 15.615 54.3738 15.9385 54.3738 16.2205C54.3738 16.5026 54.3656 16.8219 54.349 17.1786C54.3324 17.95 54.1914 18.5886 53.9259 19.0946C53.6605 19.5923 53.2582 19.9655 52.7191 20.2144C52.1882 20.4549 51.5081 20.5752 50.6786 20.5752H47.5806ZM49.0114 19.1444H50.6164C51.0809 19.1444 51.4583 19.078 51.7486 18.9453C52.0389 18.8126 52.2504 18.6011 52.3831 18.3108C52.5242 18.0122 52.5988 17.6223 52.6071 17.1412C52.6154 16.8924 52.6195 16.6767 52.6195 16.4943C52.6278 16.3035 52.6278 16.1169 52.6195 15.9344C52.6195 15.7436 52.6154 15.5279 52.6071 15.2874C52.5905 14.6073 52.4205 14.1054 52.097 13.7819C51.7735 13.4585 51.2592 13.2967 50.5542 13.2967H49.0114V19.1444ZM58.7425 20.6996C58.0789 20.6996 57.519 20.5835 57.0628 20.3512C56.6149 20.119 56.2707 19.7914 56.0302 19.3683C55.7979 18.9453 55.6652 18.4518 55.632 17.8878C55.6237 17.7385 55.6196 17.556 55.6196 17.3403C55.6196 17.1247 55.6237 16.9422 55.632 16.7929C55.6652 16.2205 55.8021 15.727 56.0426 15.3123C56.2914 14.8893 56.6398 14.5616 57.0877 14.3294C57.5439 14.0971 58.0955 13.981 58.7425 13.981C59.3895 13.981 59.9369 14.0971 60.3848 14.3294C60.841 14.5616 61.1894 14.8893 61.4299 15.3123C61.6788 15.727 61.8198 16.2205 61.853 16.7929C61.8613 16.9422 61.8654 17.1247 61.8654 17.3403C61.8654 17.556 61.8613 17.7385 61.853 17.8878C61.8198 18.4518 61.6829 18.9453 61.4424 19.3683C61.2101 19.7914 60.8659 20.119 60.4097 20.3512C59.9618 20.5835 59.4061 20.6996 58.7425 20.6996ZM58.7425 19.4679C59.1821 19.4679 59.5222 19.331 59.7627 19.0573C60.0033 18.7753 60.136 18.3647 60.1609 17.8255C60.1692 17.7011 60.1733 17.5394 60.1733 17.3403C60.1733 17.1412 60.1692 16.9795 60.1609 16.8551C60.136 16.3242 60.0033 15.9178 59.7627 15.6358C59.5222 15.3538 59.1821 15.2128 58.7425 15.2128C58.3029 15.2128 57.9628 15.3538 57.7223 15.6358C57.4817 15.9178 57.349 16.3242 57.3241 16.8551C57.3158 16.9795 57.3117 17.1412 57.3117 17.3403C57.3117 17.5394 57.3158 17.7011 57.3241 17.8255C57.349 18.3647 57.4817 18.7753 57.7223 19.0573C57.9628 19.331 58.3029 19.4679 58.7425 19.4679ZM64.8284 20.5752C64.7123 20.5752 64.6252 20.5462 64.5671 20.4881C64.5091 20.43 64.4593 20.3554 64.4178 20.2641L62.6386 14.4911C62.6303 14.4497 62.6262 14.4123 62.6262 14.3792C62.6262 14.3045 62.6511 14.2423 62.7008 14.1925C62.7589 14.1345 62.8211 14.1054 62.8875 14.1054H63.8082C63.9077 14.1054 63.9865 14.1345 64.0446 14.1925C64.1026 14.2423 64.1358 14.2921 64.1441 14.3418L65.3634 18.4601L66.6574 14.3792C66.6739 14.3211 66.7113 14.263 66.7693 14.205C66.8274 14.1386 66.9145 14.1054 67.0306 14.1054H67.6527C67.7688 14.1054 67.8559 14.1386 67.914 14.205C67.972 14.263 68.0094 14.3211 68.026 14.3792L69.3199 18.4601L70.5392 14.3418C70.5475 14.2921 70.5765 14.2423 70.6263 14.1925C70.6844 14.1345 70.7632 14.1054 70.8627 14.1054H71.7834C71.8581 14.1054 71.9203 14.1345 71.97 14.1925C72.0281 14.2423 72.0571 14.3045 72.0571 14.3792C72.0571 14.4123 72.0488 14.4497 72.0322 14.4911L70.2531 20.2641C70.2282 20.3554 70.1826 20.43 70.1162 20.4881C70.0581 20.5462 69.971 20.5752 69.8549 20.5752H69.0462C68.9301 20.5752 68.8388 20.5462 68.7725 20.4881C68.7061 20.43 68.6605 20.3554 68.6356 20.2641L67.3417 16.3325L66.0477 20.2641C66.0145 20.3554 65.9648 20.43 65.8984 20.4881C65.8403 20.5462 65.7491 20.5752 65.6247 20.5752H64.8284ZM73.5665 20.5752C73.4835 20.5752 73.413 20.5462 73.355 20.4881C73.2969 20.43 73.2679 20.3595 73.2679 20.2766V14.404C73.2679 14.3211 73.2969 14.2506 73.355 14.1925C73.413 14.1345 73.4835 14.1054 73.5665 14.1054H74.5867C74.6697 14.1054 74.7402 14.1345 74.7982 14.1925C74.8563 14.2506 74.8853 14.3211 74.8853 14.404V14.9142C75.101 14.6487 75.3747 14.4289 75.7065 14.2547C76.0466 14.0723 76.4654 13.981 76.9631 13.981C77.4691 13.981 77.9087 14.0971 78.2819 14.3294C78.6552 14.5533 78.9414 14.8727 79.1404 15.2874C79.3478 15.7021 79.4515 16.1998 79.4515 16.7804V20.2766C79.4515 20.3595 79.4224 20.43 79.3644 20.4881C79.3063 20.5462 79.2358 20.5752 79.1529 20.5752H78.058C77.975 20.5752 77.9045 20.5462 77.8465 20.4881C77.7884 20.43 77.7594 20.3595 77.7594 20.2766V16.8551C77.7594 16.374 77.6391 15.9966 77.3986 15.7229C77.1663 15.4492 76.8262 15.3123 76.3783 15.3123C75.947 15.3123 75.6028 15.4492 75.3457 15.7229C75.0885 15.9966 74.96 16.374 74.96 16.8551V20.2766C74.96 20.3595 74.9309 20.43 74.8729 20.4881C74.8148 20.5462 74.7443 20.5752 74.6614 20.5752H73.5665ZM81.3429 20.5752C81.26 20.5752 81.1895 20.5462 81.1314 20.4881C81.0734 20.43 81.0443 20.3595 81.0443 20.2766V12.0401C81.0443 11.9571 81.0734 11.8866 81.1314 11.8286C81.1895 11.7705 81.26 11.7415 81.3429 11.7415H82.3756C82.4585 11.7415 82.5291 11.7705 82.5871 11.8286C82.6452 11.8866 82.6742 11.9571 82.6742 12.0401V20.2766C82.6742 20.3595 82.6452 20.43 82.5871 20.4881C82.5291 20.5462 82.4585 20.5752 82.3756 20.5752H81.3429ZM87.1862 20.6996C86.5227 20.6996 85.9628 20.5835 85.5066 20.3512C85.0587 20.119 84.7144 19.7914 84.4739 19.3683C84.2417 18.9453 84.1089 18.4518 84.0758 17.8878C84.0675 17.7385 84.0633 17.556 84.0633 17.3403C84.0633 17.1247 84.0675 16.9422 84.0758 16.7929C84.1089 16.2205 84.2458 15.727 84.4863 15.3123C84.7352 14.8893 85.0836 14.5616 85.5315 14.3294C85.9877 14.0971 86.5392 13.981 87.1862 13.981C87.8332 13.981 88.3806 14.0971 88.8286 14.3294C89.2848 14.5616 89.6331 14.8893 89.8737 15.3123C90.1225 15.727 90.2635 16.2205 90.2967 16.7929C90.305 16.9422 90.3091 17.1247 90.3091 17.3403C90.3091 17.556 90.305 17.7385 90.2967 17.8878C90.2635 18.4518 90.1267 18.9453 89.8861 19.3683C89.6539 19.7914 89.3096 20.119 88.8534 20.3512C88.4055 20.5835 87.8498 20.6996 87.1862 20.6996ZM87.1862 19.4679C87.6258 19.4679 87.9659 19.331 88.2065 19.0573C88.447 18.7753 88.5797 18.3647 88.6046 17.8255C88.6129 17.7011 88.617 17.5394 88.617 17.3403C88.617 17.1412 88.6129 16.9795 88.6046 16.8551C88.5797 16.3242 88.447 15.9178 88.2065 15.6358C87.9659 15.3538 87.6258 15.2128 87.1862 15.2128C86.7466 15.2128 86.4065 15.3538 86.166 15.6358C85.9255 15.9178 85.7927 16.3242 85.7679 16.8551C85.7596 16.9795 85.7554 17.1412 85.7554 17.3403C85.7554 17.5394 85.7596 17.7011 85.7679 17.8255C85.7927 18.3647 85.9255 18.7753 86.166 19.0573C86.4065 19.331 86.7466 19.4679 87.1862 19.4679ZM93.5664 20.6996C93.1351 20.6996 92.7452 20.6167 92.3968 20.4508C92.0485 20.2766 91.7706 20.0485 91.5632 19.7665C91.3642 19.4762 91.2646 19.1527 91.2646 18.796C91.2646 18.2154 91.4969 17.755 91.9614 17.415C92.4342 17.0666 93.0563 16.8343 93.8277 16.7182L95.5322 16.4694V16.2081C95.5322 15.8597 95.4451 15.5902 95.2709 15.3994C95.0967 15.2086 94.7981 15.1132 94.3751 15.1132C94.0765 15.1132 93.8318 15.1754 93.641 15.2998C93.4585 15.416 93.3217 15.5736 93.2304 15.7726C93.1641 15.8805 93.0687 15.9344 92.9443 15.9344H91.9614C91.8701 15.9344 91.7996 15.9095 91.7499 15.8597C91.7084 15.81 91.6877 15.7436 91.6877 15.6607C91.6959 15.5279 91.7499 15.3662 91.8494 15.1754C91.9489 14.9847 92.1065 14.8022 92.3222 14.628C92.5378 14.4455 92.8157 14.2921 93.1558 14.1676C93.4959 14.0432 93.9064 13.981 94.3875 13.981C94.9101 13.981 95.3497 14.0474 95.7064 14.1801C96.0713 14.3045 96.3616 14.4745 96.5773 14.6902C96.793 14.9059 96.9506 15.1588 97.0501 15.4492C97.1496 15.7395 97.1994 16.0464 97.1994 16.3698V20.2766C97.1994 20.3595 97.1704 20.43 97.1123 20.4881C97.0542 20.5462 96.9837 20.5752 96.9008 20.5752H95.893C95.8018 20.5752 95.7271 20.5462 95.669 20.4881C95.6193 20.43 95.5944 20.3595 95.5944 20.2766V19.7914C95.4866 19.949 95.3414 20.0983 95.1589 20.2393C94.9764 20.372 94.7525 20.484 94.4871 20.5752C94.2299 20.6581 93.923 20.6996 93.5664 20.6996ZM93.9894 19.5176C94.2797 19.5176 94.541 19.4554 94.7732 19.331C95.0138 19.2066 95.2004 19.0158 95.3331 18.7587C95.4741 18.4933 95.5446 18.1615 95.5446 17.7633V17.5021L94.3004 17.7011C93.8111 17.7758 93.4461 17.896 93.2056 18.0619C92.965 18.2278 92.8447 18.431 92.8447 18.6716C92.8447 18.8541 92.8987 19.0117 93.0065 19.1444C93.1226 19.2688 93.2678 19.3642 93.442 19.4305C93.6161 19.4886 93.7986 19.5176 93.9894 19.5176ZM101.197 20.6996C100.766 20.6996 100.384 20.6291 100.052 20.4881C99.7287 20.3388 99.4591 20.1314 99.2435 19.866C99.0278 19.6006 98.8619 19.2895 98.7458 18.9329C98.6297 18.5679 98.5633 18.1698 98.5467 17.7385C98.5384 17.5891 98.5343 17.4564 98.5343 17.3403C98.5343 17.2159 98.5384 17.079 98.5467 16.9297C98.5633 16.515 98.6255 16.1293 98.7333 15.7726C98.8495 15.416 99.0154 15.1049 99.231 14.8395C99.455 14.5658 99.7287 14.3543 100.052 14.205C100.384 14.0557 100.766 13.981 101.197 13.981C101.645 13.981 102.022 14.0598 102.329 14.2174C102.644 14.3667 102.906 14.5616 103.113 14.8022V12.0401C103.113 11.9571 103.138 11.8866 103.188 11.8286C103.246 11.7705 103.32 11.7415 103.411 11.7415H104.469C104.552 11.7415 104.622 11.7705 104.681 11.8286C104.739 11.8866 104.768 11.9571 104.768 12.0401V20.2766C104.768 20.3595 104.739 20.43 104.681 20.4881C104.622 20.5462 104.552 20.5752 104.469 20.5752H103.486C103.395 20.5752 103.32 20.5462 103.262 20.4881C103.212 20.43 103.188 20.3595 103.188 20.2766V19.8162C102.98 20.0734 102.715 20.2849 102.391 20.4508C102.076 20.6167 101.678 20.6996 101.197 20.6996ZM101.657 19.3683C102.006 19.3683 102.283 19.2895 102.491 19.1319C102.698 18.9743 102.852 18.7753 102.951 18.5347C103.051 18.2859 103.105 18.0329 103.113 17.7758C103.121 17.6265 103.125 17.4689 103.125 17.303C103.125 17.1288 103.121 16.9671 103.113 16.8178C103.105 16.5689 103.047 16.3325 102.939 16.1086C102.831 15.8763 102.673 15.6855 102.466 15.5362C102.259 15.3869 101.989 15.3123 101.657 15.3123C101.309 15.3123 101.031 15.3911 100.824 15.5487C100.624 15.698 100.479 15.8971 100.388 16.1459C100.297 16.3947 100.243 16.6685 100.226 16.9671C100.218 17.2159 100.218 17.4647 100.226 17.7136C100.243 18.0122 100.297 18.2859 100.388 18.5347C100.479 18.7836 100.624 18.9868 100.824 19.1444C101.031 19.2937 101.309 19.3683 101.657 19.3683ZM112.131 20.6996C111.467 20.6996 110.907 20.5835 110.451 20.3512C110.003 20.119 109.659 19.7914 109.418 19.3683C109.186 18.9453 109.053 18.4518 109.02 17.8878C109.012 17.7385 109.008 17.556 109.008 17.3403C109.008 17.1247 109.012 16.9422 109.02 16.7929C109.053 16.2205 109.19 15.727 109.431 15.3123C109.68 14.8893 110.028 14.5616 110.476 14.3294C110.932 14.0971 111.484 13.981 112.131 13.981C112.778 13.981 113.325 14.0971 113.773 14.3294C114.229 14.5616 114.578 14.8893 114.818 15.3123C115.067 15.727 115.208 16.2205 115.241 16.7929C115.249 16.9422 115.254 17.1247 115.254 17.3403C115.254 17.556 115.249 17.7385 115.241 17.8878C115.208 18.4518 115.071 18.9453 114.831 19.3683C114.598 19.7914 114.254 20.119 113.798 20.3512C113.35 20.5835 112.794 20.6996 112.131 20.6996ZM112.131 19.4679C112.57 19.4679 112.91 19.331 113.151 19.0573C113.391 18.7753 113.524 18.3647 113.549 17.8255C113.557 17.7011 113.562 17.5394 113.562 17.3403C113.562 17.1412 113.557 16.9795 113.549 16.8551C113.524 16.3242 113.391 15.9178 113.151 15.6358C112.91 15.3538 112.57 15.2128 112.131 15.2128C111.691 15.2128 111.351 15.3538 111.11 15.6358C110.87 15.9178 110.737 16.3242 110.712 16.8551C110.704 16.9795 110.7 17.1412 110.7 17.3403C110.7 17.5394 110.704 17.7011 110.712 17.8255C110.737 18.3647 110.87 18.7753 111.11 19.0573C111.351 19.331 111.691 19.4679 112.131 19.4679ZM116.931 20.5752C116.848 20.5752 116.777 20.5462 116.719 20.4881C116.661 20.43 116.632 20.3595 116.632 20.2766V14.404C116.632 14.3211 116.661 14.2506 116.719 14.1925C116.777 14.1345 116.848 14.1054 116.931 14.1054H117.951C118.034 14.1054 118.104 14.1345 118.162 14.1925C118.221 14.2506 118.25 14.3211 118.25 14.404V14.9142C118.465 14.6487 118.739 14.4289 119.071 14.2547C119.411 14.0723 119.83 13.981 120.327 13.981C120.833 13.981 121.273 14.0971 121.646 14.3294C122.019 14.5533 122.306 14.8727 122.505 15.2874C122.712 15.7021 122.816 16.1998 122.816 16.7804V20.2766C122.816 20.3595 122.787 20.43 122.729 20.4881C122.671 20.5462 122.6 20.5752 122.517 20.5752H121.422C121.339 20.5752 121.269 20.5462 121.211 20.4881C121.153 20.43 121.124 20.3595 121.124 20.2766V16.8551C121.124 16.374 121.003 15.9966 120.763 15.7229C120.531 15.4492 120.19 15.3123 119.743 15.3123C119.311 15.3123 118.967 15.4492 118.71 15.7229C118.453 15.9966 118.324 16.374 118.324 16.8551V20.2766C118.324 20.3595 118.295 20.43 118.237 20.4881C118.179 20.5462 118.109 20.5752 118.026 20.5752H116.931ZM129.908 20.5752C129.41 20.5752 128.991 20.4881 128.651 20.3139C128.311 20.1397 128.058 19.8826 127.892 19.5425C127.726 19.1941 127.644 18.7628 127.644 18.2486V15.4243H126.661C126.578 15.4243 126.507 15.3952 126.449 15.3372C126.391 15.2791 126.362 15.2086 126.362 15.1257V14.404C126.362 14.3211 126.391 14.2506 126.449 14.1925C126.507 14.1345 126.578 14.1054 126.661 14.1054H127.644V12.0401C127.644 11.9571 127.668 11.8866 127.718 11.8286C127.776 11.7705 127.851 11.7415 127.942 11.7415H128.95C129.033 11.7415 129.103 11.7705 129.161 11.8286C129.22 11.8866 129.249 11.9571 129.249 12.0401V14.1054H130.804C130.887 14.1054 130.957 14.1345 131.015 14.1925C131.073 14.2506 131.102 14.3211 131.102 14.404V15.1257C131.102 15.2086 131.073 15.2791 131.015 15.3372C130.957 15.3952 130.887 15.4243 130.804 15.4243H129.249V18.1241C129.249 18.4642 129.307 18.7297 129.423 18.9204C129.547 19.1112 129.759 19.2066 130.057 19.2066H130.916C130.999 19.2066 131.069 19.2356 131.127 19.2937C131.185 19.3517 131.214 19.4223 131.214 19.5052V20.2766C131.214 20.3595 131.185 20.43 131.127 20.4881C131.069 20.5462 130.999 20.5752 130.916 20.5752H129.908ZM132.629 20.5752C132.546 20.5752 132.476 20.5462 132.418 20.4881C132.36 20.43 132.331 20.3595 132.331 20.2766V12.0401C132.331 11.9571 132.36 11.8866 132.418 11.8286C132.476 11.7705 132.546 11.7415 132.629 11.7415H133.736C133.828 11.7415 133.898 11.7705 133.948 11.8286C134.006 11.8866 134.035 11.9571 134.035 12.0401V14.8768C134.259 14.6114 134.533 14.3957 134.856 14.2298C135.18 14.064 135.578 13.981 136.051 13.981C136.557 13.981 136.996 14.0971 137.369 14.3294C137.751 14.5533 138.045 14.8727 138.253 15.2874C138.46 15.7021 138.564 16.1998 138.564 16.7804V20.2766C138.564 20.3595 138.535 20.43 138.477 20.4881C138.419 20.5462 138.348 20.5752 138.265 20.5752H137.146C137.063 20.5752 136.992 20.5462 136.934 20.4881C136.876 20.43 136.847 20.3595 136.847 20.2766V16.8551C136.847 16.374 136.727 15.9966 136.486 15.7229C136.254 15.4492 135.914 15.3123 135.466 15.3123C135.035 15.3123 134.686 15.4492 134.421 15.7229C134.164 15.9966 134.035 16.374 134.035 16.8551V20.2766C134.035 20.3595 134.006 20.43 133.948 20.4881C133.898 20.5462 133.828 20.5752 133.736 20.5752H132.629ZM142.93 20.6996C142.009 20.6996 141.279 20.4342 140.74 19.9033C140.201 19.3725 139.911 18.6177 139.869 17.6389C139.861 17.556 139.857 17.4523 139.857 17.3279C139.857 17.1952 139.861 17.0915 139.869 17.0168C139.902 16.3947 140.043 15.8556 140.292 15.3994C140.549 14.9432 140.902 14.5948 141.35 14.3543C141.798 14.1054 142.324 13.981 142.93 13.981C143.602 13.981 144.166 14.122 144.622 14.404C145.078 14.6778 145.422 15.0635 145.655 15.5611C145.887 16.0505 146.003 16.6187 146.003 17.2657V17.5269C146.003 17.6099 145.974 17.6804 145.916 17.7385C145.858 17.7965 145.783 17.8255 145.692 17.8255H141.561C141.561 17.8255 141.561 17.838 141.561 17.8629C141.561 17.8878 141.561 17.9085 141.561 17.9251C141.57 18.2154 141.623 18.485 141.723 18.7338C141.831 18.9743 141.984 19.1693 142.183 19.3186C142.391 19.4679 142.635 19.5425 142.917 19.5425C143.15 19.5425 143.345 19.5093 143.502 19.443C143.66 19.3683 143.788 19.2854 143.888 19.1941C143.987 19.1029 144.058 19.0283 144.099 18.9702C144.174 18.8707 144.232 18.8126 144.274 18.796C144.323 18.7711 144.394 18.7587 144.485 18.7587H145.555C145.638 18.7587 145.704 18.7836 145.754 18.8333C145.812 18.8831 145.837 18.9453 145.829 19.02C145.82 19.1527 145.75 19.3144 145.617 19.5052C145.493 19.696 145.31 19.8826 145.07 20.0651C144.829 20.2476 144.527 20.401 144.162 20.5254C143.805 20.6416 143.394 20.6996 142.93 20.6996ZM141.561 16.7804H144.311V16.7431C144.311 16.4196 144.257 16.1376 144.149 15.8971C144.041 15.6565 143.884 15.4657 143.676 15.3247C143.469 15.1837 143.22 15.1132 142.93 15.1132C142.64 15.1132 142.391 15.1837 142.183 15.3247C141.976 15.4657 141.818 15.6565 141.711 15.8971C141.611 16.1376 141.561 16.4196 141.561 16.7431V16.7804Z" fill="white"/>
<path d="M47.2345 44.21C47.0938 44.21 46.962 44.1572 46.8389 44.0517C46.7334 43.9463 46.6807 43.8144 46.6807 43.6562C46.6807 43.5859 46.6983 43.5068 46.7334 43.4189L53.0885 26.4105C53.1413 26.2347 53.2379 26.0852 53.3786 25.9622C53.5368 25.8215 53.7478 25.7512 54.0115 25.7512H56.8857C57.1494 25.7512 57.3516 25.8215 57.4922 25.9622C57.6329 26.0852 57.7384 26.2347 57.8087 26.4105L64.1638 43.4189C64.1813 43.5068 64.1901 43.5859 64.1901 43.6562C64.1901 43.8144 64.1374 43.9463 64.0319 44.0517C63.9264 44.1572 63.8034 44.21 63.6627 44.21H61.3686C61.1225 44.21 60.9379 44.1572 60.8148 44.0517C60.7093 43.9287 60.639 43.8144 60.6039 43.7089L59.3645 40.4918H51.5327L50.2933 43.7089C50.2582 43.8144 50.1791 43.9287 50.056 44.0517C49.9505 44.1572 49.7747 44.21 49.5286 44.21H47.2345ZM52.4556 37.4593H58.4416L55.4354 29.3111L52.4556 37.4593ZM65.1489 49.2202C64.9731 49.2202 64.8237 49.1587 64.7006 49.0356C64.5776 48.9125 64.516 48.7631 64.516 48.5873V31.1306C64.516 30.9548 64.5776 30.8054 64.7006 30.6823C64.8237 30.5593 64.9731 30.4977 65.1489 30.4977H67.2321C67.4255 30.4977 67.5749 30.5593 67.6804 30.6823C67.8035 30.8054 67.865 30.9548 67.865 31.1306V32.1854C68.2869 31.6229 68.8407 31.157 69.5263 30.7878C70.2119 30.4186 71.0645 30.2341 72.0841 30.2341C73.0159 30.2341 73.8245 30.3835 74.5101 30.6823C75.1958 30.9812 75.7671 31.4119 76.2242 31.9745C76.6812 32.5194 77.0328 33.1699 77.279 33.9258C77.5251 34.6817 77.6657 35.5168 77.7009 36.4309C77.7184 36.7298 77.7272 37.0374 77.7272 37.3539C77.7272 37.6703 77.7184 37.9867 77.7009 38.3032C77.6833 39.1822 77.5514 39.9996 77.3053 40.7555C77.0592 41.4939 76.6988 42.1443 76.2242 42.7069C75.7671 43.2519 75.1958 43.6826 74.5101 43.999C73.8245 44.3154 73.0159 44.4737 72.0841 44.4737C71.1348 44.4737 70.3262 44.3066 69.6581 43.9726C68.9901 43.621 68.4451 43.164 68.0232 42.6014V48.5873C68.0232 48.7631 67.9617 48.9125 67.8386 49.0356C67.7331 49.1587 67.5837 49.2202 67.3903 49.2202H65.1489ZM71.1085 41.6521C71.8644 41.6521 72.4533 41.4939 72.8752 41.1775C73.2971 40.8434 73.596 40.4127 73.7718 39.8853C73.9652 39.3579 74.0794 38.7778 74.1146 38.1449C74.1498 37.6176 74.1498 37.0902 74.1146 36.5628C74.0794 35.9299 73.9652 35.3498 73.7718 34.8224C73.596 34.295 73.2971 33.8731 72.8752 33.5566C72.4533 33.2226 71.8644 33.0556 71.1085 33.0556C70.3877 33.0556 69.7988 33.2226 69.3417 33.5566C68.9022 33.8906 68.577 34.3213 68.366 34.8487C68.1726 35.3586 68.0584 35.8859 68.0232 36.4309C68.0056 36.7474 67.9968 37.0814 67.9968 37.433C67.9968 37.7846 68.0056 38.1274 68.0232 38.4614C68.0408 38.9888 68.1638 39.4986 68.3924 39.9908C68.6209 40.4655 68.9549 40.861 69.3944 41.1775C69.8339 41.4939 70.4053 41.6521 71.1085 41.6521ZM79.5008 49.2202C79.325 49.2202 79.1756 49.1587 79.0525 49.0356C78.9295 48.9125 78.8679 48.7631 78.8679 48.5873V31.1306C78.8679 30.9548 78.9295 30.8054 79.0525 30.6823C79.1756 30.5593 79.325 30.4977 79.5008 30.4977H81.584C81.7774 30.4977 81.9268 30.5593 82.0323 30.6823C82.1553 30.8054 82.2169 30.9548 82.2169 31.1306V32.1854C82.6388 31.6229 83.1925 31.157 83.8782 30.7878C84.5638 30.4186 85.4164 30.2341 86.436 30.2341C87.3677 30.2341 88.1764 30.3835 88.862 30.6823C89.5476 30.9812 90.119 31.4119 90.576 31.9745C91.0331 32.5194 91.3847 33.1699 91.6308 33.9258C91.8769 34.6817 92.0176 35.5168 92.0527 36.4309C92.0703 36.7298 92.0791 37.0374 92.0791 37.3539C92.0791 37.6703 92.0703 37.9867 92.0527 38.3032C92.0352 39.1822 91.9033 39.9996 91.6572 40.7555C91.4111 41.4939 91.0507 42.1443 90.576 42.7069C90.119 43.2519 89.5476 43.6826 88.862 43.999C88.1764 44.3154 87.3677 44.4737 86.436 44.4737C85.4867 44.4737 84.678 44.3066 84.01 43.9726C83.342 43.621 82.797 43.164 82.3751 42.6014V48.5873C82.3751 48.7631 82.3136 48.9125 82.1905 49.0356C82.085 49.1587 81.9356 49.2202 81.7422 49.2202H79.5008ZM85.4603 41.6521C86.2163 41.6521 86.8052 41.4939 87.2271 41.1775C87.649 40.8434 87.9479 40.4127 88.1237 39.8853C88.317 39.3579 88.4313 38.7778 88.4665 38.1449C88.5016 37.6176 88.5016 37.0902 88.4665 36.5628C88.4313 35.9299 88.317 35.3498 88.1237 34.8224C87.9479 34.295 87.649 33.8731 87.2271 33.5566C86.8052 33.2226 86.2163 33.0556 85.4603 33.0556C84.7396 33.0556 84.1506 33.2226 83.6936 33.5566C83.2541 33.8906 82.9289 34.3213 82.7179 34.8487C82.5245 35.3586 82.4102 35.8859 82.3751 36.4309C82.3575 36.7474 82.3487 37.0814 82.3487 37.433C82.3487 37.7846 82.3575 38.1274 82.3751 38.4614C82.3927 38.9888 82.5157 39.4986 82.7443 39.9908C82.9728 40.4655 83.3068 40.861 83.7463 41.1775C84.1858 41.4939 84.7571 41.6521 85.4603 41.6521ZM104.098 44.4737C102.463 44.4737 101.092 44.2363 99.984 43.7617C98.8941 43.2694 98.059 42.6366 97.4789 41.8631C96.9164 41.072 96.6175 40.2457 96.5823 39.3843C96.5823 39.2261 96.6351 39.0943 96.7406 38.9888C96.846 38.8833 96.9779 38.8306 97.1361 38.8306H99.483C99.7115 38.8306 99.8786 38.8833 99.984 38.9888C100.107 39.0767 100.213 39.1909 100.3 39.3316C100.406 39.6656 100.608 39.9996 100.907 40.3336C101.206 40.6501 101.61 40.9138 102.12 41.1247C102.647 41.3357 103.307 41.4411 104.098 41.4411C105.363 41.4411 106.304 41.2302 106.919 40.8083C107.552 40.3864 107.869 39.815 107.869 39.0943C107.869 38.5844 107.702 38.1801 107.368 37.8812C107.034 37.5648 106.515 37.2835 105.812 37.0374C105.126 36.7737 104.212 36.5012 103.069 36.22C101.751 35.9035 100.643 35.5256 99.7467 35.0861C98.8677 34.629 98.1997 34.0577 97.7426 33.372C97.3031 32.6864 97.0834 31.8162 97.0834 30.7614C97.0834 29.7418 97.3559 28.8365 97.9008 28.0454C98.4634 27.2543 99.2545 26.6302 100.274 26.1731C101.311 25.7161 102.542 25.4875 103.966 25.4875C105.109 25.4875 106.119 25.6457 106.998 25.9622C107.877 26.261 108.607 26.6654 109.187 27.1752C109.767 27.6674 110.207 28.2036 110.506 28.7837C110.822 29.3463 110.989 29.9 111.007 30.445C111.007 30.5856 110.954 30.7175 110.848 30.8406C110.76 30.946 110.629 30.9988 110.453 30.9988H108C107.86 30.9988 107.719 30.9636 107.578 30.8933C107.438 30.823 107.324 30.6911 107.236 30.4977C107.13 29.9528 106.787 29.4869 106.207 29.1002C105.627 28.7134 104.88 28.52 103.966 28.52C103.017 28.52 102.252 28.6958 101.672 29.0474C101.092 29.399 100.801 29.944 100.801 30.6823C100.801 31.1746 100.942 31.5877 101.223 31.9217C101.522 32.2381 101.988 32.5194 102.621 32.7655C103.271 33.0117 104.124 33.2754 105.179 33.5566C106.673 33.8906 107.895 34.2774 108.844 34.7169C109.794 35.1564 110.488 35.7189 110.927 36.4045C111.367 37.0726 111.587 37.9252 111.587 38.9624C111.587 40.1227 111.27 41.1159 110.637 41.9422C110.022 42.7508 109.152 43.3749 108.027 43.8144C106.902 44.2539 105.592 44.4737 104.098 44.4737ZM118.643 44.21C117.588 44.21 116.701 44.0254 115.98 43.6562C115.259 43.287 114.723 42.7421 114.371 42.0213C114.02 41.2829 113.844 40.3688 113.844 39.2788V33.2929H111.761C111.585 33.2929 111.436 33.2314 111.312 33.1083C111.189 32.9853 111.128 32.8359 111.128 32.6601V31.1306C111.128 30.9548 111.189 30.8054 111.312 30.6823C111.436 30.5593 111.585 30.4977 111.761 30.4977H113.844V26.1204C113.844 25.9446 113.897 25.7952 114.002 25.6721C114.125 25.549 114.283 25.4875 114.477 25.4875H116.613C116.789 25.4875 116.938 25.549 117.061 25.6721C117.184 25.7952 117.246 25.9446 117.246 26.1204V30.4977H120.542C120.718 30.4977 120.867 30.5593 120.99 30.6823C121.113 30.8054 121.175 30.9548 121.175 31.1306V32.6601C121.175 32.8359 121.113 32.9853 120.99 33.1083C120.867 33.2314 120.718 33.2929 120.542 33.2929H117.246V39.0151C117.246 39.7359 117.369 40.2985 117.615 40.7028C117.879 41.1071 118.327 41.3093 118.96 41.3093H120.779C120.955 41.3093 121.104 41.3708 121.227 41.4939C121.351 41.6169 121.412 41.7664 121.412 41.9422V43.5771C121.412 43.7529 121.351 43.9023 121.227 44.0254C121.104 44.1484 120.955 44.21 120.779 44.21H118.643ZM127.97 44.4737C126.564 44.4737 125.377 44.2275 124.411 43.7353C123.461 43.2431 122.732 42.5487 122.222 41.6521C121.73 40.7555 121.448 39.7095 121.378 38.5141C121.36 38.1977 121.352 37.8109 121.352 37.3539C121.352 36.8968 121.36 36.51 121.378 36.1936C121.448 34.9806 121.738 33.9346 122.248 33.0556C122.776 32.159 123.514 31.4646 124.463 30.9724C125.43 30.4802 126.599 30.2341 127.97 30.2341C129.342 30.2341 130.502 30.4802 131.451 30.9724C132.418 31.4646 133.156 32.159 133.666 33.0556C134.194 33.9346 134.493 34.9806 134.563 36.1936C134.58 36.51 134.589 36.8968 134.589 37.3539C134.589 37.8109 134.58 38.1977 134.563 38.5141C134.493 39.7095 134.202 40.7555 133.693 41.6521C133.2 42.5487 132.471 43.2431 131.504 43.7353C130.555 44.2275 129.377 44.4737 127.97 44.4737ZM127.97 41.8631C128.902 41.8631 129.623 41.573 130.133 40.9929C130.643 40.3952 130.924 39.525 130.977 38.3823C130.994 38.1186 131.003 37.7758 131.003 37.3539C131.003 36.9319 130.994 36.5891 130.977 36.3254C130.924 35.2003 130.643 34.3389 130.133 33.7412C129.623 33.1435 128.902 32.8446 127.97 32.8446C127.039 32.8446 126.318 33.1435 125.808 33.7412C125.298 34.3389 125.017 35.2003 124.964 36.3254C124.947 36.5891 124.938 36.9319 124.938 37.3539C124.938 37.7758 124.947 38.1186 124.964 38.3823C125.017 39.525 125.298 40.3952 125.808 40.9929C126.318 41.573 127.039 41.8631 127.97 41.8631ZM136.298 44.21C136.122 44.21 135.973 44.1484 135.85 44.0254C135.727 43.9023 135.665 43.7529 135.665 43.5771V31.157C135.665 30.9636 135.727 30.8054 135.85 30.6823C135.973 30.5593 136.122 30.4977 136.298 30.4977H138.434C138.61 30.4977 138.759 30.5593 138.882 30.6823C139.023 30.8054 139.093 30.9636 139.093 31.157V32.2381C139.497 31.6756 140.016 31.2449 140.649 30.946C141.299 30.6472 142.046 30.4977 142.89 30.4977H143.971C144.165 30.4977 144.314 30.5593 144.42 30.6823C144.543 30.8054 144.604 30.9548 144.604 31.1306V33.0292C144.604 33.205 144.543 33.3545 144.42 33.4775C144.314 33.6006 144.165 33.6621 143.971 33.6621H141.915C141.071 33.6621 140.412 33.8994 139.937 34.3741C139.48 34.8487 139.251 35.4992 139.251 36.3254V43.5771C139.251 43.7529 139.19 43.9023 139.067 44.0254C138.944 44.1484 138.785 44.21 138.592 44.21H136.298ZM150.542 44.4737C148.59 44.4737 147.043 43.9111 145.901 42.786C144.758 41.6609 144.143 40.0611 144.055 37.9867C144.037 37.8109 144.028 37.5912 144.028 37.3275C144.028 37.0462 144.037 36.8265 144.055 36.6682C144.125 35.3498 144.424 34.2071 144.951 33.2402C145.496 32.2733 146.243 31.535 147.193 31.0251C148.142 30.4978 149.258 30.2341 150.542 30.2341C151.966 30.2341 153.161 30.5329 154.128 31.1306C155.095 31.7108 155.824 32.5282 156.317 33.583C156.809 34.6202 157.055 35.8244 157.055 37.1956V37.7494C157.055 37.9252 156.993 38.0746 156.87 38.1977C156.747 38.3207 156.589 38.3823 156.396 38.3823H147.641C147.641 38.3823 147.641 38.4086 147.641 38.4614C147.641 38.5141 147.641 38.5581 147.641 38.5932C147.659 39.2085 147.773 39.7799 147.984 40.3073C148.212 40.8171 148.538 41.2302 148.959 41.5466C149.399 41.8631 149.918 42.0213 150.515 42.0213C151.007 42.0213 151.421 41.951 151.755 41.8103C152.089 41.6521 152.361 41.4763 152.572 41.2829C152.783 41.0896 152.932 40.9313 153.02 40.8083C153.179 40.5973 153.302 40.4743 153.39 40.4391C153.495 40.3864 153.644 40.36 153.838 40.36H156.106C156.281 40.36 156.422 40.4127 156.528 40.5182C156.651 40.6237 156.703 40.7555 156.686 40.9138C156.668 41.195 156.519 41.5378 156.237 41.9422C155.974 42.3465 155.587 42.7421 155.077 43.1288C154.567 43.5156 153.926 43.8408 153.152 44.1045C152.396 44.3506 151.526 44.4737 150.542 44.4737ZM147.641 36.1672H153.469V36.0881C153.469 35.4025 153.354 34.8048 153.126 34.295C152.897 33.7852 152.563 33.3808 152.124 33.082C151.684 32.7831 151.157 32.6337 150.542 32.6337C149.926 32.6337 149.399 32.7831 148.959 33.082C148.52 33.3808 148.186 33.7852 147.957 34.295C147.746 34.8048 147.641 35.4025 147.641 36.0881V36.1672Z" fill="white"/>
</svg>
