<svg width="176" height="59" viewBox="0 0 176 59" fill="none" xmlns="http://www.w3.org/2000/svg">
<rect x="0.514535" y="0.514535" width="174.608" height="57.9709" rx="9.09012" stroke="white" stroke-width="1.02907"/>
<path d="M35.0363 34.7317C38.9866 32.5239 42.0074 30.8417 42.2656 30.7102C43.0918 30.2634 43.9438 29.0806 42.2656 28.1607C41.7234 27.8715 38.8059 26.2419 35.0363 24.1392L29.8467 29.4486L35.0363 34.7317Z" fill="#FFDD33"/>
<path d="M29.8473 29.4487L13.2715 46.4547C13.6588 46.5072 14.0977 46.4021 14.6141 46.113C15.6985 45.5084 27.2137 39.0951 35.0369 34.7319L29.8473 29.4487Z" fill="#FF6666"/>
<path d="M29.8467 29.4485L35.0363 24.1391C35.0363 24.1391 15.7754 13.4414 14.6135 12.8106C14.1746 12.5477 13.684 12.4689 13.2451 12.5477L29.8467 29.4485Z" fill="#7BFF7B"/>
<path d="M29.8468 29.4487L13.2452 12.5479C12.5739 12.7056 12.0059 13.3101 12.0059 14.5455C12.0059 16.5168 12.0059 42.8011 12.0059 44.457C12.0059 45.5872 12.4448 46.402 13.271 46.4809L29.8468 29.4487Z" fill="#6ED8FF"/>
<path d="M53.0757 20.5752C52.9928 20.5752 52.9223 20.5462 52.8642 20.4881C52.8061 20.43 52.7771 20.3595 52.7771 20.2766V12.1769C52.7771 12.0857 52.8061 12.0111 52.8642 11.953C52.9223 11.8949 52.9928 11.8659 53.0757 11.8659H56.1115C56.9493 11.8659 57.6377 11.9945 58.1769 12.2516C58.7243 12.5087 59.1349 12.8903 59.4086 13.3962C59.6906 13.9022 59.8358 14.5202 59.8441 15.2501C59.8607 15.615 59.869 15.9385 59.869 16.2205C59.869 16.5026 59.8607 16.8219 59.8441 17.1786C59.8275 17.95 59.6865 18.5886 59.4211 19.0946C59.1556 19.5923 58.7533 19.9655 58.2142 20.2144C57.6833 20.4549 57.0032 20.5752 56.1737 20.5752H53.0757ZM54.5065 19.1444H56.1115C56.576 19.1444 56.9534 19.078 57.2437 18.9453C57.534 18.8126 57.7456 18.6011 57.8783 18.3108C58.0193 18.0122 58.0939 17.6223 58.1022 17.1412C58.1105 16.8924 58.1147 16.6767 58.1147 16.4943C58.123 16.3035 58.123 16.1169 58.1147 15.9344C58.1147 15.7436 58.1105 15.5279 58.1022 15.2874C58.0856 14.6073 57.9156 14.1054 57.5921 13.7819C57.2686 13.4585 56.7544 13.2967 56.0493 13.2967H54.5065V19.1444ZM64.2376 20.6996C63.574 20.6996 63.0142 20.5835 62.558 20.3512C62.1101 20.119 61.7658 19.7914 61.5253 19.3683C61.293 18.9453 61.1603 18.4518 61.1271 17.8878C61.1189 17.7385 61.1147 17.556 61.1147 17.3403C61.1147 17.1247 61.1189 16.9422 61.1271 16.7929C61.1603 16.2205 61.2972 15.727 61.5377 15.3123C61.7866 14.8893 62.1349 14.5616 62.5828 14.3294C63.039 14.0971 63.5906 13.981 64.2376 13.981C64.8846 13.981 65.432 14.0971 65.8799 14.3294C66.3361 14.5616 66.6845 14.8893 66.9251 15.3123C67.1739 15.727 67.3149 16.2205 67.3481 16.7929C67.3564 16.9422 67.3605 17.1247 67.3605 17.3403C67.3605 17.556 67.3564 17.7385 67.3481 17.8878C67.3149 18.4518 67.178 18.9453 66.9375 19.3683C66.7052 19.7914 66.361 20.119 65.9048 20.3512C65.4569 20.5835 64.9012 20.6996 64.2376 20.6996ZM64.2376 19.4679C64.6772 19.4679 65.0173 19.331 65.2578 19.0573C65.4984 18.7753 65.6311 18.3647 65.656 17.8255C65.6643 17.7011 65.6684 17.5394 65.6684 17.3403C65.6684 17.1412 65.6643 16.9795 65.656 16.8551C65.6311 16.3242 65.4984 15.9178 65.2578 15.6358C65.0173 15.3538 64.6772 15.2128 64.2376 15.2128C63.798 15.2128 63.4579 15.3538 63.2174 15.6358C62.9768 15.9178 62.8441 16.3242 62.8192 16.8551C62.8109 16.9795 62.8068 17.1412 62.8068 17.3403C62.8068 17.5394 62.8109 17.7011 62.8192 17.8255C62.8441 18.3647 62.9768 18.7753 63.2174 19.0573C63.4579 19.331 63.798 19.4679 64.2376 19.4679ZM70.3235 20.5752C70.2074 20.5752 70.1203 20.5462 70.0622 20.4881C70.0042 20.43 69.9544 20.3554 69.9129 20.2641L68.1338 14.4911C68.1255 14.4497 68.1213 14.4123 68.1213 14.3792C68.1213 14.3045 68.1462 14.2423 68.196 14.1925C68.254 14.1345 68.3162 14.1054 68.3826 14.1054H69.3033C69.4028 14.1054 69.4816 14.1345 69.5397 14.1925C69.5977 14.2423 69.6309 14.2921 69.6392 14.3418L70.8585 18.4601L72.1525 14.3792C72.1691 14.3211 72.2064 14.263 72.2645 14.205C72.3225 14.1386 72.4096 14.1054 72.5257 14.1054H73.1478C73.2639 14.1054 73.351 14.1386 73.4091 14.205C73.4672 14.263 73.5045 14.3211 73.5211 14.3792L74.815 18.4601L76.0343 14.3418C76.0426 14.2921 76.0717 14.2423 76.1214 14.1925C76.1795 14.1345 76.2583 14.1054 76.3578 14.1054H77.2785C77.3532 14.1054 77.4154 14.1345 77.4651 14.1925C77.5232 14.2423 77.5522 14.3045 77.5522 14.3792C77.5522 14.4123 77.5439 14.4497 77.5274 14.4911L75.7482 20.2641C75.7233 20.3554 75.6777 20.43 75.6113 20.4881C75.5533 20.5462 75.4662 20.5752 75.35 20.5752H74.5413C74.4252 20.5752 74.3339 20.5462 74.2676 20.4881C74.2012 20.43 74.1556 20.3554 74.1307 20.2641L72.8368 16.3325L71.5428 20.2641C71.5096 20.3554 71.4599 20.43 71.3935 20.4881C71.3355 20.5462 71.2442 20.5752 71.1198 20.5752H70.3235ZM79.0616 20.5752C78.9786 20.5752 78.9081 20.5462 78.8501 20.4881C78.792 20.43 78.763 20.3595 78.763 20.2766V14.404C78.763 14.3211 78.792 14.2506 78.8501 14.1925C78.9081 14.1345 78.9786 14.1054 79.0616 14.1054H80.0818C80.1648 14.1054 80.2353 14.1345 80.2933 14.1925C80.3514 14.2506 80.3804 14.3211 80.3804 14.404V14.9142C80.5961 14.6487 80.8698 14.4289 81.2016 14.2547C81.5417 14.0723 81.9605 13.981 82.4582 13.981C82.9642 13.981 83.4038 14.0971 83.7771 14.3294C84.1503 14.5533 84.4365 14.8727 84.6355 15.2874C84.8429 15.7021 84.9466 16.1998 84.9466 16.7804V20.2766C84.9466 20.3595 84.9176 20.43 84.8595 20.4881C84.8014 20.5462 84.7309 20.5752 84.648 20.5752H83.5531C83.4702 20.5752 83.3997 20.5462 83.3416 20.4881C83.2835 20.43 83.2545 20.3595 83.2545 20.2766V16.8551C83.2545 16.374 83.1342 15.9966 82.8937 15.7229C82.6614 15.4492 82.3214 15.3123 81.8735 15.3123C81.4421 15.3123 81.0979 15.4492 80.8408 15.7229C80.5836 15.9966 80.4551 16.374 80.4551 16.8551V20.2766C80.4551 20.3595 80.426 20.43 80.368 20.4881C80.3099 20.5462 80.2394 20.5752 80.1565 20.5752H79.0616ZM86.838 20.5752C86.7551 20.5752 86.6846 20.5462 86.6265 20.4881C86.5685 20.43 86.5394 20.3595 86.5394 20.2766V12.0401C86.5394 11.9571 86.5685 11.8866 86.6265 11.8286C86.6846 11.7705 86.7551 11.7415 86.838 11.7415H87.8707C87.9537 11.7415 88.0242 11.7705 88.0822 11.8286C88.1403 11.8866 88.1693 11.9571 88.1693 12.0401V20.2766C88.1693 20.3595 88.1403 20.43 88.0822 20.4881C88.0242 20.5462 87.9537 20.5752 87.8707 20.5752H86.838ZM92.6813 20.6996C92.0178 20.6996 91.4579 20.5835 91.0017 20.3512C90.5538 20.119 90.2096 19.7914 89.969 19.3683C89.7368 18.9453 89.6041 18.4518 89.5709 17.8878C89.5626 17.7385 89.5584 17.556 89.5584 17.3403C89.5584 17.1247 89.5626 16.9422 89.5709 16.7929C89.6041 16.2205 89.7409 15.727 89.9815 15.3123C90.2303 14.8893 90.5787 14.5616 91.0266 14.3294C91.4828 14.0971 92.0344 13.981 92.6813 13.981C93.3283 13.981 93.8758 14.0971 94.3237 14.3294C94.7799 14.5616 95.1282 14.8893 95.3688 15.3123C95.6176 15.727 95.7586 16.2205 95.7918 16.7929C95.8001 16.9422 95.8042 17.1247 95.8042 17.3403C95.8042 17.556 95.8001 17.7385 95.7918 17.8878C95.7586 18.4518 95.6218 18.9453 95.3812 19.3683C95.149 19.7914 94.8048 20.119 94.3486 20.3512C93.9006 20.5835 93.3449 20.6996 92.6813 20.6996ZM92.6813 19.4679C93.121 19.4679 93.461 19.331 93.7016 19.0573C93.9421 18.7753 94.0748 18.3647 94.0997 17.8255C94.108 17.7011 94.1122 17.5394 94.1122 17.3403C94.1122 17.1412 94.108 16.9795 94.0997 16.8551C94.0748 16.3242 93.9421 15.9178 93.7016 15.6358C93.461 15.3538 93.121 15.2128 92.6813 15.2128C92.2417 15.2128 91.9017 15.3538 91.6611 15.6358C91.4206 15.9178 91.2879 16.3242 91.263 16.8551C91.2547 16.9795 91.2505 17.1412 91.2505 17.3403C91.2505 17.5394 91.2547 17.7011 91.263 17.8255C91.2879 18.3647 91.4206 18.7753 91.6611 19.0573C91.9017 19.331 92.2417 19.4679 92.6813 19.4679ZM99.0615 20.6996C98.6302 20.6996 98.2403 20.6167 97.892 20.4508C97.5436 20.2766 97.2657 20.0485 97.0584 19.7665C96.8593 19.4762 96.7597 19.1527 96.7597 18.796C96.7597 18.2154 96.992 17.755 97.4565 17.415C97.9293 17.0666 98.5514 16.8343 99.3228 16.7182L101.027 16.4694V16.2081C101.027 15.8597 100.94 15.5902 100.766 15.3994C100.592 15.2086 100.293 15.1132 99.8702 15.1132C99.5716 15.1132 99.3269 15.1754 99.1361 15.2998C98.9537 15.416 98.8168 15.5736 98.7256 15.7726C98.6592 15.8805 98.5638 15.9344 98.4394 15.9344H97.4565C97.3652 15.9344 97.2947 15.9095 97.245 15.8597C97.2035 15.81 97.1828 15.7436 97.1828 15.6607C97.1911 15.5279 97.245 15.3662 97.3445 15.1754C97.444 14.9847 97.6016 14.8022 97.8173 14.628C98.033 14.4455 98.3108 14.2921 98.6509 14.1676C98.991 14.0432 99.4016 13.981 99.8827 13.981C100.405 13.981 100.845 14.0474 101.201 14.1801C101.566 14.3045 101.857 14.4745 102.072 14.6902C102.288 14.9059 102.446 15.1588 102.545 15.4492C102.645 15.7395 102.695 16.0464 102.695 16.3698V20.2766C102.695 20.3595 102.665 20.43 102.607 20.4881C102.549 20.5462 102.479 20.5752 102.396 20.5752H101.388C101.297 20.5752 101.222 20.5462 101.164 20.4881C101.114 20.43 101.09 20.3595 101.09 20.2766V19.7914C100.982 19.949 100.837 20.0983 100.654 20.2393C100.472 20.372 100.248 20.484 99.9822 20.5752C99.7251 20.6581 99.4182 20.6996 99.0615 20.6996ZM99.4845 19.5176C99.7748 19.5176 100.036 19.4554 100.268 19.331C100.509 19.2066 100.696 19.0158 100.828 18.7587C100.969 18.4933 101.04 18.1615 101.04 17.7633V17.5021L99.7956 17.7011C99.3062 17.7758 98.9412 17.896 98.7007 18.0619C98.4601 18.2278 98.3399 18.431 98.3399 18.6716C98.3399 18.8541 98.3938 19.0117 98.5016 19.1444C98.6177 19.2688 98.7629 19.3642 98.9371 19.4305C99.1113 19.4886 99.2937 19.5176 99.4845 19.5176ZM106.692 20.6996C106.261 20.6996 105.879 20.6291 105.547 20.4881C105.224 20.3388 104.954 20.1314 104.739 19.866C104.523 19.6006 104.357 19.2895 104.241 18.9329C104.125 18.5679 104.058 18.1698 104.042 17.7385C104.034 17.5891 104.029 17.4564 104.029 17.3403C104.029 17.2159 104.034 17.079 104.042 16.9297C104.058 16.515 104.121 16.1293 104.228 15.7726C104.345 15.416 104.51 15.1049 104.726 14.8395C104.95 14.5658 105.224 14.3543 105.547 14.205C105.879 14.0557 106.261 13.981 106.692 13.981C107.14 13.981 107.517 14.0598 107.824 14.2174C108.139 14.3667 108.401 14.5616 108.608 14.8022V12.0401C108.608 11.9571 108.633 11.8866 108.683 11.8286C108.741 11.7705 108.815 11.7415 108.907 11.7415H109.964C110.047 11.7415 110.118 11.7705 110.176 11.8286C110.234 11.8866 110.263 11.9571 110.263 12.0401V20.2766C110.263 20.3595 110.234 20.43 110.176 20.4881C110.118 20.5462 110.047 20.5752 109.964 20.5752H108.981C108.89 20.5752 108.815 20.5462 108.757 20.4881C108.708 20.43 108.683 20.3595 108.683 20.2766V19.8162C108.475 20.0734 108.21 20.2849 107.886 20.4508C107.571 20.6167 107.173 20.6996 106.692 20.6996ZM107.152 19.3683C107.501 19.3683 107.779 19.2895 107.986 19.1319C108.193 18.9743 108.347 18.7753 108.446 18.5347C108.546 18.2859 108.6 18.0329 108.608 17.7758C108.616 17.6265 108.62 17.4689 108.62 17.303C108.62 17.1288 108.616 16.9671 108.608 16.8178C108.6 16.5689 108.542 16.3325 108.434 16.1086C108.326 15.8763 108.168 15.6855 107.961 15.5362C107.754 15.3869 107.484 15.3123 107.152 15.3123C106.804 15.3123 106.526 15.3911 106.319 15.5487C106.12 15.698 105.974 15.8971 105.883 16.1459C105.792 16.3947 105.738 16.6685 105.721 16.9671C105.713 17.2159 105.713 17.4647 105.721 17.7136C105.738 18.0122 105.792 18.2859 105.883 18.5347C105.974 18.7836 106.12 18.9868 106.319 19.1444C106.526 19.2937 106.804 19.3683 107.152 19.3683ZM117.626 20.6996C116.962 20.6996 116.402 20.5835 115.946 20.3512C115.498 20.119 115.154 19.7914 114.913 19.3683C114.681 18.9453 114.549 18.4518 114.515 17.8878C114.507 17.7385 114.503 17.556 114.503 17.3403C114.503 17.1247 114.507 16.9422 114.515 16.7929C114.549 16.2205 114.685 15.727 114.926 15.3123C115.175 14.8893 115.523 14.5616 115.971 14.3294C116.427 14.0971 116.979 13.981 117.626 13.981C118.273 13.981 118.82 14.0971 119.268 14.3294C119.724 14.5616 120.073 14.8893 120.313 15.3123C120.562 15.727 120.703 16.2205 120.736 16.7929C120.745 16.9422 120.749 17.1247 120.749 17.3403C120.749 17.556 120.745 17.7385 120.736 17.8878C120.703 18.4518 120.566 18.9453 120.326 19.3683C120.093 19.7914 119.749 20.119 119.293 20.3512C118.845 20.5835 118.289 20.6996 117.626 20.6996ZM117.626 19.4679C118.065 19.4679 118.405 19.331 118.646 19.0573C118.887 18.7753 119.019 18.3647 119.044 17.8255C119.052 17.7011 119.057 17.5394 119.057 17.3403C119.057 17.1412 119.052 16.9795 119.044 16.8551C119.019 16.3242 118.887 15.9178 118.646 15.6358C118.405 15.3538 118.065 15.2128 117.626 15.2128C117.186 15.2128 116.846 15.3538 116.606 15.6358C116.365 15.9178 116.232 16.3242 116.207 16.8551C116.199 16.9795 116.195 17.1412 116.195 17.3403C116.195 17.5394 116.199 17.7011 116.207 17.8255C116.232 18.3647 116.365 18.7753 116.606 19.0573C116.846 19.331 117.186 19.4679 117.626 19.4679ZM122.426 20.5752C122.343 20.5752 122.272 20.5462 122.214 20.4881C122.156 20.43 122.127 20.3595 122.127 20.2766V14.404C122.127 14.3211 122.156 14.2506 122.214 14.1925C122.272 14.1345 122.343 14.1054 122.426 14.1054H123.446C123.529 14.1054 123.6 14.1345 123.658 14.1925C123.716 14.2506 123.745 14.3211 123.745 14.404V14.9142C123.96 14.6487 124.234 14.4289 124.566 14.2547C124.906 14.0723 125.325 13.981 125.822 13.981C126.328 13.981 126.768 14.0971 127.141 14.3294C127.515 14.5533 127.801 14.8727 128 15.2874C128.207 15.7021 128.311 16.1998 128.311 16.7804V20.2766C128.311 20.3595 128.282 20.43 128.224 20.4881C128.166 20.5462 128.095 20.5752 128.012 20.5752H126.917C126.834 20.5752 126.764 20.5462 126.706 20.4881C126.648 20.43 126.619 20.3595 126.619 20.2766V16.8551C126.619 16.374 126.498 15.9966 126.258 15.7229C126.026 15.4492 125.686 15.3123 125.238 15.3123C124.806 15.3123 124.462 15.4492 124.205 15.7229C123.948 15.9966 123.819 16.374 123.819 16.8551V20.2766C123.819 20.3595 123.79 20.43 123.732 20.4881C123.674 20.5462 123.604 20.5752 123.521 20.5752H122.426ZM135.403 20.5752C134.905 20.5752 134.487 20.4881 134.146 20.3139C133.806 20.1397 133.553 19.8826 133.387 19.5425C133.222 19.1941 133.139 18.7628 133.139 18.2486V15.4243H132.156C132.073 15.4243 132.002 15.3952 131.944 15.3372C131.886 15.2791 131.857 15.2086 131.857 15.1257V14.404C131.857 14.3211 131.886 14.2506 131.944 14.1925C132.002 14.1345 132.073 14.1054 132.156 14.1054H133.139V12.0401C133.139 11.9571 133.164 11.8866 133.213 11.8286C133.271 11.7705 133.346 11.7415 133.437 11.7415H134.445C134.528 11.7415 134.599 11.7705 134.657 11.8286C134.715 11.8866 134.744 11.9571 134.744 12.0401V14.1054H136.299C136.382 14.1054 136.452 14.1345 136.51 14.1925C136.568 14.2506 136.597 14.3211 136.597 14.404V15.1257C136.597 15.2086 136.568 15.2791 136.51 15.3372C136.452 15.3952 136.382 15.4243 136.299 15.4243H134.744V18.1241C134.744 18.4642 134.802 18.7297 134.918 18.9204C135.042 19.1112 135.254 19.2066 135.552 19.2066H136.411C136.494 19.2066 136.564 19.2356 136.622 19.2937C136.68 19.3517 136.709 19.4223 136.709 19.5052V20.2766C136.709 20.3595 136.68 20.43 136.622 20.4881C136.564 20.5462 136.494 20.5752 136.411 20.5752H135.403ZM138.124 20.5752C138.041 20.5752 137.971 20.5462 137.913 20.4881C137.855 20.43 137.826 20.3595 137.826 20.2766V12.0401C137.826 11.9571 137.855 11.8866 137.913 11.8286C137.971 11.7705 138.041 11.7415 138.124 11.7415H139.232C139.323 11.7415 139.393 11.7705 139.443 11.8286C139.501 11.8866 139.53 11.9571 139.53 12.0401V14.8768C139.754 14.6114 140.028 14.3957 140.351 14.2298C140.675 14.064 141.073 13.981 141.546 13.981C142.052 13.981 142.491 14.0971 142.865 14.3294C143.246 14.5533 143.541 14.8727 143.748 15.2874C143.955 15.7021 144.059 16.1998 144.059 16.7804V20.2766C144.059 20.3595 144.03 20.43 143.972 20.4881C143.914 20.5462 143.843 20.5752 143.76 20.5752H142.641C142.558 20.5752 142.487 20.5462 142.429 20.4881C142.371 20.43 142.342 20.3595 142.342 20.2766V16.8551C142.342 16.374 142.222 15.9966 141.981 15.7229C141.749 15.4492 141.409 15.3123 140.961 15.3123C140.53 15.3123 140.181 15.4492 139.916 15.7229C139.659 15.9966 139.53 16.374 139.53 16.8551V20.2766C139.53 20.3595 139.501 20.43 139.443 20.4881C139.393 20.5462 139.323 20.5752 139.232 20.5752H138.124ZM148.425 20.6996C147.504 20.6996 146.774 20.4342 146.235 19.9033C145.696 19.3725 145.406 18.6177 145.364 17.6389C145.356 17.556 145.352 17.4523 145.352 17.3279C145.352 17.1952 145.356 17.0915 145.364 17.0168C145.397 16.3947 145.538 15.8556 145.787 15.3994C146.044 14.9432 146.397 14.5948 146.845 14.3543C147.293 14.1054 147.819 13.981 148.425 13.981C149.097 13.981 149.661 14.122 150.117 14.404C150.573 14.6778 150.917 15.0635 151.15 15.5611C151.382 16.0505 151.498 16.6187 151.498 17.2657V17.5269C151.498 17.6099 151.469 17.6804 151.411 17.7385C151.353 17.7965 151.278 17.8255 151.187 17.8255H147.056C147.056 17.8255 147.056 17.838 147.056 17.8629C147.056 17.8878 147.056 17.9085 147.056 17.9251C147.065 18.2154 147.119 18.485 147.218 18.7338C147.326 18.9743 147.479 19.1693 147.678 19.3186C147.886 19.4679 148.13 19.5425 148.412 19.5425C148.645 19.5425 148.84 19.5093 148.997 19.443C149.155 19.3683 149.283 19.2854 149.383 19.1941C149.482 19.1029 149.553 19.0283 149.594 18.9702C149.669 18.8707 149.727 18.8126 149.769 18.796C149.818 18.7711 149.889 18.7587 149.98 18.7587H151.05C151.133 18.7587 151.199 18.7836 151.249 18.8333C151.307 18.8831 151.332 18.9453 151.324 19.02C151.316 19.1527 151.245 19.3144 151.112 19.5052C150.988 19.696 150.805 19.8826 150.565 20.0651C150.324 20.2476 150.022 20.401 149.657 20.5254C149.3 20.6416 148.889 20.6996 148.425 20.6996ZM147.056 16.7804H149.806V16.7431C149.806 16.4196 149.752 16.1376 149.644 15.8971C149.536 15.6565 149.379 15.4657 149.171 15.3247C148.964 15.1837 148.715 15.1132 148.425 15.1132C148.135 15.1132 147.886 15.1837 147.678 15.3247C147.471 15.4657 147.313 15.6565 147.206 15.8971C147.106 16.1376 147.056 16.4196 147.056 16.7431V16.7804Z" fill="white"/>
<path d="M54.4963 44.21C54.3205 44.21 54.1711 44.1484 54.0481 44.0254C53.925 43.9023 53.8635 43.7529 53.8635 43.5771V26.4105C53.8635 26.2171 53.925 26.0589 54.0481 25.9358C54.1711 25.8127 54.3205 25.7512 54.4963 25.7512H61.5634C62.9346 25.7512 64.1301 25.971 65.1497 26.4105C66.1693 26.8324 66.9604 27.4828 67.5229 28.3618C68.0855 29.2232 68.3668 30.3044 68.3668 31.6053C68.3668 32.9238 68.0855 34.0137 67.5229 34.8751C66.9604 35.7189 66.1693 36.3518 65.1497 36.7737C64.1301 37.1956 62.9346 37.4066 61.5634 37.4066H57.6343V43.5771C57.6343 43.7529 57.5728 43.9023 57.4497 44.0254C57.3443 44.1484 57.1948 44.21 57.0015 44.21H54.4963ZM57.5816 34.4796H61.4316C62.4512 34.4796 63.2335 34.2422 63.7785 33.7676C64.3234 33.2754 64.5959 32.5546 64.5959 31.6053C64.5959 30.7263 64.341 30.0231 63.8312 29.4957C63.3214 28.9507 62.5215 28.6782 61.4316 28.6782H57.5816V34.4796ZM69.7427 44.21C69.5669 44.21 69.4175 44.1484 69.2944 44.0254C69.1714 43.9023 69.1099 43.7529 69.1099 43.5771V26.1204C69.1099 25.9446 69.1714 25.7952 69.2944 25.6721C69.4175 25.549 69.5669 25.4875 69.7427 25.4875H71.9314C72.1072 25.4875 72.2566 25.549 72.3797 25.6721C72.5028 25.7952 72.5643 25.9446 72.5643 26.1204V43.5771C72.5643 43.7529 72.5028 43.9023 72.3797 44.0254C72.2566 44.1484 72.1072 44.21 71.9314 44.21H69.7427ZM78.1981 44.4737C77.284 44.4737 76.4577 44.2979 75.7194 43.9463C74.981 43.5771 74.3921 43.0936 73.9526 42.4959C73.5307 41.8806 73.3197 41.195 73.3197 40.4391C73.3197 39.2085 73.812 38.2328 74.7964 37.5121C75.7985 36.7737 77.117 36.2815 78.7519 36.0354L82.3645 35.508V34.9542C82.3645 34.2159 82.1799 33.6445 81.8108 33.2402C81.4416 32.8359 80.8087 32.6337 79.9121 32.6337C79.2793 32.6337 78.7607 32.7655 78.3563 33.0292C77.9696 33.2754 77.6795 33.6094 77.4861 34.0313C77.3455 34.2598 77.1433 34.3741 76.8796 34.3741H74.7964C74.6031 34.3741 74.4536 34.3213 74.3481 34.2159C74.2602 34.1104 74.2163 33.9698 74.2163 33.794C74.2339 33.5127 74.3481 33.1699 74.5591 32.7655C74.7701 32.3612 75.1041 31.9745 75.5611 31.6053C76.0182 31.2185 76.6071 30.8933 77.3279 30.6296C78.0487 30.3659 78.9189 30.2341 79.9385 30.2341C81.046 30.2341 81.9778 30.3747 82.7337 30.656C83.5072 30.9197 84.1225 31.28 84.5796 31.7371C85.0366 32.1942 85.3707 32.7304 85.5816 33.3457C85.7926 33.961 85.898 34.6114 85.898 35.297V43.5771C85.898 43.7529 85.8365 43.9023 85.7135 44.0254C85.5904 44.1484 85.441 44.21 85.2652 44.21H83.1292C82.9359 44.21 82.7776 44.1484 82.6546 44.0254C82.5491 43.9023 82.4964 43.7529 82.4964 43.5771V42.5487C82.2678 42.8827 81.9602 43.1991 81.5734 43.498C81.1867 43.7793 80.712 44.0166 80.1495 44.21C79.6045 44.3858 78.954 44.4737 78.1981 44.4737ZM79.0947 41.9685C79.71 41.9685 80.2637 41.8367 80.756 41.573C81.2658 41.3093 81.6613 40.905 81.9426 40.36C82.2415 39.7974 82.3909 39.0943 82.3909 38.2504V37.6967L79.7539 38.1186C78.7167 38.2768 77.9432 38.5317 77.4334 38.8833C76.9236 39.2349 76.6687 39.6656 76.6687 40.1754C76.6687 40.5622 76.7829 40.8962 77.0115 41.1775C77.2576 41.4411 77.5652 41.6433 77.9344 41.784C78.3036 41.907 78.6903 41.9685 79.0947 41.9685ZM89.5533 49.2202C89.4127 49.2202 89.2896 49.1675 89.1842 49.062C89.0787 48.9565 89.0259 48.8334 89.0259 48.6928C89.0259 48.6225 89.0259 48.5522 89.0259 48.4818C89.0435 48.4291 89.0787 48.3588 89.1314 48.2709L91.1882 43.3925L86.1253 31.4471C86.055 31.2713 86.0198 31.1482 86.0198 31.0779C86.0374 30.9197 86.0989 30.7878 86.2044 30.6823C86.3099 30.5593 86.4417 30.4977 86.5999 30.4977H88.7359C88.9468 30.4977 89.105 30.5505 89.2105 30.656C89.316 30.7614 89.3951 30.8757 89.4479 30.9988L92.955 39.6216L96.5677 30.9988C96.6204 30.8581 96.6995 30.7439 96.805 30.656C96.9105 30.5505 97.0687 30.4977 97.2796 30.4977H99.3892C99.5298 30.4977 99.6529 30.5505 99.7584 30.656C99.8814 30.7614 99.943 30.8845 99.943 31.0251C99.943 31.1306 99.9078 31.2713 99.8375 31.4471L92.3749 48.7192C92.3046 48.8598 92.2167 48.9741 92.1112 49.062C92.0057 49.1675 91.8475 49.2202 91.6365 49.2202H89.5533ZM110.58 44.4737C108.945 44.4737 107.573 44.2363 106.466 43.7617C105.376 43.2694 104.541 42.6366 103.961 41.8631C103.398 41.072 103.099 40.2457 103.064 39.3843C103.064 39.2261 103.117 39.0943 103.222 38.9888C103.328 38.8833 103.46 38.8306 103.618 38.8306H105.965C106.193 38.8306 106.36 38.8833 106.466 38.9888C106.589 39.0767 106.694 39.1909 106.782 39.3316C106.888 39.6656 107.09 39.9996 107.389 40.3336C107.688 40.6501 108.092 40.9138 108.602 41.1247C109.129 41.3357 109.789 41.4411 110.58 41.4411C111.845 41.4411 112.786 41.2302 113.401 40.8083C114.034 40.3864 114.35 39.815 114.35 39.0943C114.35 38.5844 114.183 38.1801 113.849 37.8812C113.515 37.5648 112.997 37.2835 112.294 37.0374C111.608 36.7737 110.694 36.5012 109.551 36.22C108.233 35.9035 107.125 35.5256 106.229 35.0861C105.35 34.629 104.682 34.0577 104.225 33.372C103.785 32.6864 103.565 31.8162 103.565 30.7614C103.565 29.7418 103.838 28.8365 104.383 28.0454C104.945 27.2543 105.736 26.6302 106.756 26.1731C107.793 25.7161 109.024 25.4875 110.448 25.4875C111.59 25.4875 112.601 25.6457 113.48 25.9622C114.359 26.261 115.089 26.6654 115.669 27.1752C116.249 27.6674 116.689 28.2036 116.987 28.7837C117.304 29.3463 117.471 29.9 117.488 30.445C117.488 30.5856 117.436 30.7175 117.33 30.8406C117.242 30.946 117.11 30.9988 116.935 30.9988H114.482C114.342 30.9988 114.201 30.9636 114.06 30.8933C113.92 30.823 113.805 30.6911 113.718 30.4977C113.612 29.9528 113.269 29.4869 112.689 29.1002C112.109 28.7134 111.362 28.52 110.448 28.52C109.498 28.52 108.734 28.6958 108.154 29.0474C107.573 29.399 107.283 29.944 107.283 30.6823C107.283 31.1746 107.424 31.5877 107.705 31.9217C108.004 32.2381 108.47 32.5194 109.103 32.7655C109.753 33.0117 110.606 33.2754 111.661 33.5566C113.155 33.8906 114.377 34.2774 115.326 34.7169C116.275 35.1564 116.97 35.7189 117.409 36.4045C117.849 37.0726 118.069 37.9252 118.069 38.9624C118.069 40.1227 117.752 41.1159 117.119 41.9422C116.504 42.7508 115.634 43.3749 114.509 43.8144C113.384 44.2539 112.074 44.4737 110.58 44.4737ZM125.125 44.21C124.07 44.21 123.183 44.0254 122.462 43.6562C121.741 43.287 121.205 42.7421 120.853 42.0213C120.502 41.2829 120.326 40.3688 120.326 39.2788V33.2929H118.243C118.067 33.2929 117.917 33.2314 117.794 33.1083C117.671 32.9853 117.61 32.8359 117.61 32.6601V31.1306C117.61 30.9548 117.671 30.8054 117.794 30.6823C117.917 30.5593 118.067 30.4977 118.243 30.4977H120.326V26.1204C120.326 25.9446 120.379 25.7952 120.484 25.6721C120.607 25.549 120.765 25.4875 120.959 25.4875H123.095C123.27 25.4875 123.42 25.549 123.543 25.6721C123.666 25.7952 123.728 25.9446 123.728 26.1204V30.4977H127.024C127.2 30.4977 127.349 30.5593 127.472 30.6823C127.595 30.8054 127.657 30.9548 127.657 31.1306V32.6601C127.657 32.8359 127.595 32.9853 127.472 33.1083C127.349 33.2314 127.2 33.2929 127.024 33.2929H123.728V39.0151C123.728 39.7359 123.851 40.2985 124.097 40.7028C124.36 41.1071 124.809 41.3093 125.442 41.3093H127.261C127.437 41.3093 127.586 41.3708 127.709 41.4939C127.832 41.6169 127.894 41.7664 127.894 41.9422V43.5771C127.894 43.7529 127.832 43.9023 127.709 44.0254C127.586 44.1484 127.437 44.21 127.261 44.21H125.125ZM134.452 44.4737C133.046 44.4737 131.859 44.2275 130.892 43.7353C129.943 43.2431 129.214 42.5487 128.704 41.6521C128.212 40.7555 127.93 39.7095 127.86 38.5141C127.842 38.1977 127.834 37.8109 127.834 37.3539C127.834 36.8968 127.842 36.51 127.86 36.1936C127.93 34.9806 128.22 33.9346 128.73 33.0556C129.258 32.159 129.996 31.4646 130.945 30.9724C131.912 30.4802 133.081 30.2341 134.452 30.2341C135.824 30.2341 136.984 30.4802 137.933 30.9724C138.9 31.4646 139.638 32.159 140.148 33.0556C140.676 33.9346 140.974 34.9806 141.045 36.1936C141.062 36.51 141.071 36.8968 141.071 37.3539C141.071 37.8109 141.062 38.1977 141.045 38.5141C140.974 39.7095 140.684 40.7555 140.175 41.6521C139.682 42.5487 138.953 43.2431 137.986 43.7353C137.037 44.2275 135.859 44.4737 134.452 44.4737ZM134.452 41.8631C135.384 41.8631 136.105 41.573 136.615 40.9929C137.124 40.3952 137.406 39.525 137.459 38.3823C137.476 38.1186 137.485 37.7758 137.485 37.3539C137.485 36.9319 137.476 36.5891 137.459 36.3254C137.406 35.2003 137.124 34.3389 136.615 33.7412C136.105 33.1435 135.384 32.8446 134.452 32.8446C133.521 32.8446 132.8 33.1435 132.29 33.7412C131.78 34.3389 131.499 35.2003 131.446 36.3254C131.429 36.5891 131.42 36.9319 131.42 37.3539C131.42 37.7758 131.429 38.1186 131.446 38.3823C131.499 39.525 131.78 40.3952 132.29 40.9929C132.8 41.573 133.521 41.8631 134.452 41.8631ZM142.78 44.21C142.604 44.21 142.455 44.1484 142.332 44.0254C142.208 43.9023 142.147 43.7529 142.147 43.5771V31.157C142.147 30.9636 142.208 30.8054 142.332 30.6823C142.455 30.5593 142.604 30.4977 142.78 30.4977H144.916C145.092 30.4977 145.241 30.5593 145.364 30.6823C145.505 30.8054 145.575 30.9636 145.575 31.157V32.2381C145.979 31.6756 146.498 31.2449 147.131 30.946C147.781 30.6472 148.528 30.4977 149.372 30.4977H150.453C150.647 30.4977 150.796 30.5593 150.902 30.6823C151.025 30.8054 151.086 30.9548 151.086 31.1306V33.0292C151.086 33.205 151.025 33.3545 150.902 33.4775C150.796 33.6006 150.647 33.6621 150.453 33.6621H148.397C147.553 33.6621 146.893 33.8994 146.419 34.3741C145.962 34.8487 145.733 35.4992 145.733 36.3254V43.5771C145.733 43.7529 145.672 43.9023 145.549 44.0254C145.426 44.1484 145.267 44.21 145.074 44.21H142.78ZM157.024 44.4737C155.072 44.4737 153.525 43.9111 152.382 42.786C151.24 41.6609 150.625 40.0611 150.537 37.9867C150.519 37.8109 150.51 37.5912 150.51 37.3275C150.51 37.0462 150.519 36.8265 150.537 36.6682C150.607 35.3498 150.906 34.2071 151.433 33.2402C151.978 32.2733 152.725 31.535 153.675 31.0251C154.624 30.4978 155.74 30.2341 157.024 30.2341C158.448 30.2341 159.643 30.5329 160.61 31.1306C161.577 31.7108 162.306 32.5282 162.798 33.583C163.291 34.6202 163.537 35.8244 163.537 37.1956V37.7494C163.537 37.9252 163.475 38.0746 163.352 38.1977C163.229 38.3207 163.071 38.3823 162.878 38.3823H154.123C154.123 38.3823 154.123 38.4086 154.123 38.4614C154.123 38.5141 154.123 38.5581 154.123 38.5932C154.14 39.2085 154.255 39.7799 154.466 40.3073C154.694 40.8171 155.019 41.2302 155.441 41.5466C155.881 41.8631 156.399 42.0213 156.997 42.0213C157.489 42.0213 157.903 41.951 158.237 41.8103C158.571 41.6521 158.843 41.4763 159.054 41.2829C159.265 41.0896 159.414 40.9313 159.502 40.8083C159.661 40.5973 159.784 40.4743 159.871 40.4391C159.977 40.3864 160.126 40.36 160.32 40.36H162.588C162.763 40.36 162.904 40.4127 163.009 40.5182C163.133 40.6237 163.185 40.7555 163.168 40.9138C163.15 41.195 163.001 41.5378 162.719 41.9422C162.456 42.3465 162.069 42.7421 161.559 43.1288C161.049 43.5156 160.408 43.8408 159.634 44.1045C158.878 44.3506 158.008 44.4737 157.024 44.4737ZM154.123 36.1672H159.951V36.0881C159.951 35.4025 159.836 34.8048 159.608 34.295C159.379 33.7852 159.045 33.3808 158.606 33.082C158.166 32.7831 157.639 32.6337 157.024 32.6337C156.408 32.6337 155.881 32.7831 155.441 33.082C155.002 33.3808 154.668 33.7852 154.439 34.295C154.228 34.8048 154.123 35.4025 154.123 36.0881V36.1672Z" fill="white"/>
</svg>
