<svg width="24" height="24" viewBox="0 0 24 24" fill="none" xmlns="http://www.w3.org/2000/svg">
<g id="Group">
<g id="Clip path group">
<mask id="mask0_1567_3418" style="mask-type:luminance" maskUnits="userSpaceOnUse" x="0" y="0" width="24" height="24">
<g id="akarIconsSnapchatFill0">
<path id="Vector" d="M0 0H24V24H0V0Z" fill="white"/>
</g>
</mask>
<g mask="url(#mask0_1567_3418)">
<g id="Group_2">
<path id="Vector_2" d="M5.82877 4.5332C5.22877 5.8772 5.46577 8.2852 5.56177 9.9692C4.91377 10.3282 4.08177 9.6982 3.61077 9.6982C3.12077 9.6982 2.53577 10.0202 2.44377 10.5002C2.37777 10.8462 2.53277 11.3502 3.64477 11.7892C4.07477 11.9592 5.09777 12.1592 5.33477 12.7172C5.66777 13.5012 3.62477 17.1202 0.41677 17.6482C0.295652 17.6682 0.186199 17.7323 0.10942 17.8281C0.0326417 17.9239 -0.00605101 18.0446 0.000769796 18.1672C0.0567698 19.1422 2.24277 19.5242 3.21177 19.6742C3.31077 19.8082 3.39077 20.3742 3.51777 20.8052C3.57477 20.9982 3.72177 21.2292 4.09977 21.2292C4.59277 21.2292 5.41177 20.8492 6.83777 21.0852C8.23577 21.3182 9.54977 23.3002 12.0728 23.3002C14.4178 23.3002 15.8168 21.3092 17.1628 21.0852C17.9418 20.9562 18.6108 20.9972 19.3588 21.1432C19.8738 21.2442 20.3358 21.3002 20.4828 20.7942C20.6118 20.3572 20.6908 19.8022 20.7878 19.6712C21.7478 19.5222 23.9438 19.1412 23.9988 18.1662C24.0056 18.0436 23.9669 17.9229 23.8901 17.8271C23.8133 17.7313 23.7039 17.6672 23.5828 17.6472C20.4288 17.1272 18.3238 13.5192 18.6648 12.7162C18.9008 12.1592 19.9168 11.9612 20.3548 11.7882C21.1688 11.4672 21.5768 11.0722 21.5678 10.6152C21.5568 10.0302 20.8528 9.6812 20.3348 9.6812C19.8078 9.6812 19.0508 10.3052 18.4378 9.9672C18.5338 8.2692 18.7698 5.8722 18.1708 4.5292C17.0358 1.9862 14.5108 0.700195 11.9868 0.700195C9.47877 0.700195 6.97277 1.9682 5.82877 4.5332Z" fill="#0F172A"/>
</g>
</g>
</g>
</g>
</svg>
