<svg width="26" height="33" viewBox="0 0 26 33" fill="none" xmlns="http://www.w3.org/2000/svg">
<path id="Vector" d="M24.914 11.5353C24.7307 11.6757 21.4943 13.4769 21.4943 17.4818C21.4943 22.1141 25.6125 23.7529 25.7358 23.7935C25.7168 23.8933 25.0815 26.0378 23.5645 28.2229C22.2118 30.1457 20.799 32.0655 18.6498 32.0655C16.5007 32.0655 15.9476 30.8325 13.4666 30.8325C11.0488 30.8325 10.1891 32.106 8.22325 32.106C6.2574 32.106 4.88572 30.3268 3.30862 28.1417C1.48183 25.5758 0.00585938 21.5897 0.00585938 17.8064C0.00585938 11.7382 4.00077 8.5199 7.93248 8.5199C10.0216 8.5199 11.763 9.87463 13.0747 9.87463C14.3231 9.87463 16.27 8.43874 18.6467 8.43874C19.5474 8.43874 22.7838 8.5199 24.914 11.5353ZM17.5184 5.86973C18.5013 4.71789 19.1966 3.11968 19.1966 1.52147C19.1966 1.29984 19.1777 1.07509 19.1366 0.894043C17.5373 0.953352 15.6347 1.94599 14.4874 3.26015C13.5867 4.27152 12.746 5.86973 12.746 7.4898C12.746 7.73328 12.7871 7.97675 12.806 8.05479C12.9072 8.07352 13.0715 8.09537 13.2359 8.09537C14.6707 8.09537 16.4754 7.14643 17.5184 5.86973Z" fill="black"/>
</svg>
