<svg width="25" height="24" viewBox="0 0 25 24" fill="none" xmlns="http://www.w3.org/2000/svg">
<g id="vuesax/bulk/back-square">
<g id="back-square">
<path id="Vector" opacity="0.4" d="M16.524 2H8.15398C4.50398 2 2.33398 4.17 2.33398 7.81V16.18C2.33398 19.82 4.50398 21.99 8.14398 21.99H16.514C20.154 21.99 22.324 19.82 22.324 16.18V7.81C22.334 4.17 20.164 2 16.524 2Z" fill="#485FD0"/>
<path id="Vector_2" d="M14.2544 8.48006H9.10441L9.43441 8.15006C9.72441 7.86006 9.72441 7.38006 9.43441 7.09006C9.14441 6.80006 8.66441 6.80006 8.37441 7.09006L6.80441 8.66006C6.51441 8.95006 6.51441 9.43006 6.80441 9.72006L8.37441 11.2901C8.52441 11.4401 8.71441 11.5101 8.90441 11.5101C9.09441 11.5101 9.28441 11.4401 9.43441 11.2901C9.72441 11.0001 9.72441 10.5201 9.43441 10.2301L9.17441 9.97006H14.2544C15.5344 9.97006 16.5844 11.0101 16.5844 12.3001C16.5844 13.5901 15.5444 14.6301 14.2544 14.6301H9.33441C8.92441 14.6301 8.58441 14.9701 8.58441 15.3801C8.58441 15.7901 8.92441 16.1301 9.33441 16.1301H14.2544C16.3644 16.1301 18.0844 14.4101 18.0844 12.3001C18.0844 10.1901 16.3644 8.48006 14.2544 8.48006Z" fill="#485FD0"/>
</g>
</g>
</svg>
