<svg width="25" height="24" viewBox="0 0 25 24" fill="none" xmlns="http://www.w3.org/2000/svg">
<g id="vuesax/bulk/calendar-tick">
<g id="calendar-tick">
<path id="Vector" d="M17.0832 3.56V2C17.0832 1.59 16.7432 1.25 16.3332 1.25C15.9232 1.25 15.5832 1.59 15.5832 2V3.5H9.08324V2C9.08324 1.59 8.74324 1.25 8.33324 1.25C7.92324 1.25 7.58324 1.59 7.58324 2V3.56C4.88324 3.81 3.57324 5.42 3.37324 7.81C3.35324 8.1 3.59324 8.34 3.87324 8.34H20.7932C21.0832 8.34 21.3232 8.09 21.2932 7.81C21.0932 5.42 19.7832 3.81 17.0832 3.56Z" fill="#24337D"/>
<path id="Vector_2" opacity="0.4" d="M21.333 10.8401V12.5801C21.333 13.1901 20.793 13.6601 20.193 13.5601C19.913 13.5201 19.623 13.4901 19.333 13.4901C16.303 13.4901 13.833 15.9601 13.833 18.9901C13.833 19.4501 14.013 20.0901 14.203 20.6701C14.423 21.3201 13.943 21.9901 13.253 21.9901H8.33301C4.83301 21.9901 3.33301 19.9901 3.33301 16.9901V10.8301C3.33301 10.2801 3.78301 9.83008 4.33301 9.83008H20.333C20.883 9.84008 21.333 10.2901 21.333 10.8401Z" fill="#24337D"/>
<path id="Vector_3" d="M19.333 15C17.123 15 15.333 16.79 15.333 19C15.333 19.75 15.543 20.46 15.913 21.06C16.603 22.22 17.873 23 19.333 23C20.793 23 22.063 22.22 22.753 21.06C23.123 20.46 23.333 19.75 23.333 19C23.333 16.79 21.543 15 19.333 15ZM21.403 18.57L19.273 20.54C19.133 20.67 18.943 20.74 18.763 20.74C18.573 20.74 18.383 20.67 18.233 20.52L17.243 19.53C16.953 19.24 16.953 18.76 17.243 18.47C17.533 18.18 18.013 18.18 18.303 18.47L18.783 18.95L20.383 17.47C20.683 17.19 21.163 17.21 21.443 17.51C21.723 17.81 21.703 18.28 21.403 18.57Z" fill="#24337D"/>
<path id="Vector_4" d="M8.83301 14.9999C8.57301 14.9999 8.31301 14.8899 8.12301 14.7099C7.94301 14.5199 7.83301 14.2599 7.83301 13.9999C7.83301 13.7399 7.94301 13.4799 8.12301 13.2899C8.35301 13.0599 8.703 12.9499 9.033 13.0199C9.093 13.0299 9.15301 13.0499 9.21301 13.0799C9.27301 13.0999 9.33301 13.1299 9.39301 13.1699C9.44301 13.2099 9.49301 13.2499 9.54301 13.2899C9.72301 13.4799 9.83301 13.7399 9.83301 13.9999C9.83301 14.2599 9.72301 14.5199 9.54301 14.7099C9.49301 14.7499 9.44301 14.7899 9.39301 14.8299C9.33301 14.8699 9.27301 14.8999 9.21301 14.9199C9.15301 14.9499 9.093 14.9699 9.033 14.9799C8.963 14.9899 8.89301 14.9999 8.83301 14.9999Z" fill="#24337D"/>
<path id="Vector_5" d="M12.333 14.9999C12.073 14.9999 11.813 14.8899 11.623 14.7099C11.443 14.5199 11.333 14.2599 11.333 13.9999C11.333 13.7399 11.443 13.48 11.623 13.29C12.003 12.92 12.673 12.92 13.043 13.29C13.223 13.48 13.333 13.7399 13.333 13.9999C13.333 14.2599 13.223 14.5199 13.043 14.7099C12.853 14.8899 12.593 14.9999 12.333 14.9999Z" fill="#24337D"/>
<path id="Vector_6" d="M8.83301 18.4999C8.57301 18.4999 8.31301 18.3899 8.12301 18.2099C7.94301 18.0199 7.83301 17.7599 7.83301 17.4999C7.83301 17.2399 7.94301 16.9799 8.12301 16.7899C8.22301 16.6999 8.32301 16.6299 8.45301 16.5799C8.82301 16.4199 9.26301 16.5099 9.54301 16.7899C9.72301 16.9799 9.83301 17.2399 9.83301 17.4999C9.83301 17.7599 9.72301 18.0199 9.54301 18.2099C9.35301 18.3899 9.09301 18.4999 8.83301 18.4999Z" fill="#24337D"/>
</g>
</g>
</svg>
