<svg width="24" height="24" viewBox="0 0 24 24" fill="none" xmlns="http://www.w3.org/2000/svg">
<g id="vuesax/outline/car">
<g id="car">
<path id="Vector" d="M4.86408 6.88105L5.13315 5.59522C5.1332 5.59498 5.13325 5.59473 5.1333 5.59449C5.16267 5.45561 5.19387 5.32153 5.22754 5.19235C5.19337 5.32888 5.1637 5.4634 5.13593 5.59331L5.13593 5.59331L5.13554 5.59516L4.86408 6.88105ZM5.99324 3.65064C5.87846 3.76853 5.77985 3.89545 5.69442 4.02837C5.78617 3.88138 5.88944 3.74747 6.00668 3.62708C6.33269 3.29231 6.82621 3.00349 7.64116 2.8861C6.95434 2.98611 6.40691 3.22575 5.99324 3.65064ZM18.0015 3.63029C18.4538 4.0956 18.698 4.76044 18.8755 5.59468C18.8756 5.59515 18.8757 5.59561 18.8758 5.59607L20.0044 10.9997C20.003 10.9999 20.0014 11.0001 19.9994 11.0001H19.9922L19.8035 10.0967L18.8635 5.59672L18.8635 5.59672L18.8628 5.59331C18.7262 4.95399 18.5435 4.20325 18.0055 3.65064C17.4338 3.06349 16.6067 2.83008 15.5094 2.83008H15.5194C16.8616 2.83008 17.5746 3.19102 18.0015 3.63029Z" fill="#0F172A" stroke="#0F172A" stroke-width="1.5"/>
<path id="Vector_2" d="M16.6623 20.9763L16.6623 20.9763L16.6611 20.9728L16.4611 20.3728L16.4611 20.3728L16.4592 20.3672C16.4558 20.3572 16.4523 20.347 16.4488 20.3368C16.4241 20.2644 16.3986 20.1898 16.372 20.1163C16.4006 20.1919 16.4296 20.2733 16.4594 20.3612L16.6681 20.9772C16.6683 20.9777 16.6684 20.9783 16.6686 20.9788C16.6712 20.9865 16.6738 20.9944 16.6764 21.0023C16.712 21.1092 16.7541 21.2357 16.8011 21.3414C16.8519 21.4555 16.9416 21.6257 17.1137 21.7661C17.0744 21.7374 17.0423 21.7087 17.0157 21.6817C16.8503 21.5142 16.7662 21.2933 16.6623 20.9763ZM15.9161 19.3501C15.9771 19.4038 16.0325 19.4656 16.0845 19.538C16.0237 19.4571 15.9498 19.3775 15.8584 19.3056C15.8362 19.2882 15.8138 19.2718 15.7913 19.2564C15.8394 19.2871 15.8805 19.3186 15.9161 19.3501ZM20.8429 11.8112C20.8503 11.8202 20.8576 11.8293 20.8648 11.8385C20.8482 11.8183 20.8312 11.7984 20.8136 11.7787C20.6023 11.5425 20.3441 11.373 20.0448 11.2543C20.4291 11.405 20.6751 11.6061 20.8429 11.8112ZM19.7025 11.1443C19.3185 11.0463 18.8812 11.01 18.3996 11.01H5.6196C4.57293 11.01 3.7338 11.1799 3.19811 11.7787C3.00316 11.9967 2.87359 12.2481 2.78481 12.5105C2.87216 12.2431 2.98987 12.0096 3.15202 11.8118C3.4917 11.3977 4.15095 11 5.6196 11H18.3796C18.9236 11 19.3562 11.0546 19.7025 11.1443ZM2.56652 13.7279C2.58754 13.4966 2.6137 13.2789 2.64895 13.0753C2.61155 13.3048 2.59149 13.5304 2.57305 13.7379L2.57275 13.7413L2.57254 13.7436L2.01275 19.8313L2.01273 19.8313L2.01234 19.8359C1.96486 20.3899 2.14151 20.9267 2.5238 21.3436C2.54139 21.3632 2.55932 21.3825 2.57759 21.4012C2.55571 21.3794 2.53431 21.3571 2.51342 21.3343C2.13727 20.9218 1.95558 20.371 2.00644 19.8188L2.00645 19.8187L2.56645 13.7287L2.56652 13.7279ZM8.1164 19.3424C8.01079 19.4295 7.92849 19.526 7.86289 19.6228C7.90949 19.5509 7.96173 19.485 8.02207 19.4244C8.06543 19.3809 8.11749 19.336 8.18132 19.2924C8.15935 19.3082 8.1377 19.3249 8.1164 19.3424Z" fill="#0F172A" stroke="#0F172A" stroke-width="1.5"/>
<g id="Vector_3">
<mask id="path-3-inside-1_1567_4654" fill="white">
<path d="M4 8.75H3C2.59 8.75 2.25 8.41 2.25 8C2.25 7.59 2.59 7.25 3 7.25H4C4.41 7.25 4.75 7.59 4.75 8C4.75 8.41 4.41 8.75 4 8.75Z"/>
</mask>
<path d="M4 8.75H3C2.59 8.75 2.25 8.41 2.25 8C2.25 7.59 2.59 7.25 3 7.25H4C4.41 7.25 4.75 7.59 4.75 8C4.75 8.41 4.41 8.75 4 8.75Z" fill="#0F172A"/>
<path d="M4 7.25H3V10.25H4V7.25ZM3 7.25C3.41843 7.25 3.75 7.58157 3.75 8H0.75C0.75 9.23843 1.76157 10.25 3 10.25V7.25ZM3.75 8C3.75 8.41843 3.41843 8.75 3 8.75V5.75C1.76157 5.75 0.75 6.76157 0.75 8H3.75ZM3 8.75H4V5.75H3V8.75ZM4 8.75C3.58157 8.75 3.25 8.41843 3.25 8H6.25C6.25 6.76157 5.23843 5.75 4 5.75V8.75ZM3.25 8C3.25 7.58157 3.58157 7.25 4 7.25V10.25C5.23843 10.25 6.25 9.23843 6.25 8H3.25Z" fill="#0F172A" mask="url(#path-3-inside-1_1567_4654)"/>
</g>
<path id="Vector_4" d="M21 8.75H20C19.59 8.75 19.25 8.41 19.25 8C19.25 7.59 19.59 7.25 20 7.25H21C21.41 7.25 21.75 7.59 21.75 8C21.75 8.41 21.41 8.75 21 8.75Z" fill="#0F172A"/>
<path id="Vector_5" d="M12 5.75C11.59 5.75 11.25 5.41 11.25 5V3C11.25 2.59 11.59 2.25 12 2.25C12.41 2.25 12.75 2.59 12.75 3V5C12.75 5.41 12.41 5.75 12 5.75Z" fill="#0F172A"/>
<path id="Vector_6" d="M13.5 5.75H10.5C10.09 5.75 9.75 5.41 9.75 5C9.75 4.59 10.09 4.25 10.5 4.25H13.5C13.91 4.25 14.25 4.59 14.25 5C14.25 5.41 13.91 5.75 13.5 5.75Z" fill="#0F172A"/>
<path id="Vector_7" d="M9 15.75H6C5.59 15.75 5.25 15.41 5.25 15C5.25 14.59 5.59 14.25 6 14.25H9C9.41 14.25 9.75 14.59 9.75 15C9.75 15.41 9.41 15.75 9 15.75Z" fill="#0F172A"/>
<path id="Vector_8" d="M18 15.75H15C14.59 15.75 14.25 15.41 14.25 15C14.25 14.59 14.59 14.25 15 14.25H18C18.41 14.25 18.75 14.59 18.75 15C18.75 15.41 18.41 15.75 18 15.75Z" fill="#0F172A"/>
</g>
</g>
</svg>
