<svg width="34" height="35" viewBox="0 0 34 35" fill="none" xmlns="http://www.w3.org/2000/svg">
<g id="vuesax/outline/money-2">
<g id="money-2">
<path id="Vector" d="M24.084 30.3938H9.91732C4.74648 30.3938 1.77148 27.4188 1.77148 22.2479V12.3313C1.77148 7.16042 4.74648 4.18542 9.91732 4.18542H24.084C29.2548 4.18542 32.2298 7.16042 32.2298 12.3313V22.2479C32.2298 27.4188 29.2548 30.3938 24.084 30.3938ZM9.91732 6.31042C5.86565 6.31042 3.89648 8.27959 3.89648 12.3313V22.2479C3.89648 26.2996 5.86565 28.2688 9.91732 28.2688H24.084C28.1357 28.2688 30.1048 26.2996 30.1048 22.2479V12.3313C30.1048 8.27959 28.1357 6.31042 24.084 6.31042H9.91732Z" fill="#292D32"/>
<path id="Vector_2" d="M17 22.6021C14.0675 22.6021 11.6875 20.2221 11.6875 17.2896C11.6875 14.3571 14.0675 11.9771 17 11.9771C19.9325 11.9771 22.3125 14.3571 22.3125 17.2896C22.3125 20.2221 19.9325 22.6021 17 22.6021ZM17 14.1021C15.2433 14.1021 13.8125 15.5329 13.8125 17.2896C13.8125 19.0462 15.2433 20.4771 17 20.4771C18.7567 20.4771 20.1875 19.0462 20.1875 17.2896C20.1875 15.5329 18.7567 14.1021 17 14.1021Z" fill="#292D32"/>
<path id="Vector_3" d="M4.25065 14.102H2.83398C2.25315 14.102 1.77148 13.6203 1.77148 13.0395C1.77148 12.4587 2.25315 11.977 2.83398 11.977H4.25065C7.90565 11.977 8.85482 11.0278 8.85482 7.37284V5.95618C8.85482 5.37534 9.33648 4.89368 9.91732 4.89368C10.4982 4.89368 10.9798 5.37534 10.9798 5.95618V7.37284C10.9798 12.2178 9.09565 14.102 4.25065 14.102Z" fill="#292D32"/>
<path id="Vector_4" d="M31.1673 14.102H29.7507C24.9057 14.102 23.0215 12.2178 23.0215 7.37284V5.95618C23.0215 5.37534 23.5032 4.89368 24.084 4.89368C24.6648 4.89368 25.1465 5.37534 25.1465 5.95618V7.37284C25.1465 11.0278 26.0957 11.977 29.7507 11.977H31.1673C31.7482 11.977 32.2298 12.4587 32.2298 13.0395C32.2298 13.6203 31.7482 14.102 31.1673 14.102Z" fill="#292D32"/>
<path id="Vector_5" d="M9.91732 29.6854C9.33648 29.6854 8.85482 29.2037 8.85482 28.6229V27.2062C8.85482 23.5512 7.90565 22.6021 4.25065 22.6021H2.83398C2.25315 22.6021 1.77148 22.1204 1.77148 21.5396C1.77148 20.9587 2.25315 20.4771 2.83398 20.4771H4.25065C9.09565 20.4771 10.9798 22.3612 10.9798 27.2062V28.6229C10.9798 29.2037 10.4982 29.6854 9.91732 29.6854Z" fill="#292D32"/>
<path id="Vector_6" d="M24.084 29.6854C23.5032 29.6854 23.0215 29.2037 23.0215 28.6229V27.2062C23.0215 22.3612 24.9057 20.4771 29.7507 20.4771H31.1673C31.7482 20.4771 32.2298 20.9587 32.2298 21.5396C32.2298 22.1204 31.7482 22.6021 31.1673 22.6021H29.7507C26.0957 22.6021 25.1465 23.5512 25.1465 27.2062V28.6229C25.1465 29.2037 24.6648 29.6854 24.084 29.6854Z" fill="#292D32"/>
</g>
</g>
</svg>
