<svg width="25" height="25" viewBox="0 0 25 25" fill="none" xmlns="http://www.w3.org/2000/svg">
<g id="dollar-circle">
<g id="dollar-circle_2">
<path id="Vector" d="M9.33789 15.3011C9.33789 16.5911 10.3279 17.6311 11.5579 17.6311H14.0679C15.1379 17.6311 16.0079 16.7211 16.0079 15.6011C16.0079 14.3811 15.4779 13.9511 14.6879 13.6711L10.6579 12.2711C9.86789 11.9911 9.33789 11.5611 9.33789 10.3411C9.33789 9.2211 10.2079 8.3111 11.2779 8.3111H13.7879C15.0179 8.3111 16.0079 9.3511 16.0079 10.6411" stroke="#0F172A" stroke-width="1.5" stroke-linecap="round" stroke-linejoin="round"/>
<path id="Vector_2" d="M12.666 6.97125V18.9713" stroke="#0F172A" stroke-width="1.5" stroke-linecap="round" stroke-linejoin="round"/>
<path id="Vector_3" d="M12.666 22.9713C18.1889 22.9713 22.666 18.4941 22.666 12.9713C22.666 7.4484 18.1889 2.97125 12.666 2.97125C7.14317 2.97125 2.66602 7.4484 2.66602 12.9713C2.66602 18.4941 7.14317 22.9713 12.666 22.9713Z" stroke="#0F172A" stroke-width="1.5" stroke-linecap="round" stroke-linejoin="round"/>
</g>
</g>
</svg>
