<svg width="24" height="24" viewBox="0 0 24 24" fill="none" xmlns="http://www.w3.org/2000/svg">
<g id="vuesax/bulk/driving">
<g id="driving">
<g id="Group">
<path id="Vector" d="M12 18.75C11.59 18.75 11.25 18.41 11.25 18V17C11.25 16.59 11.59 16.25 12 16.25C12.41 16.25 12.75 16.59 12.75 17V18C12.75 18.41 12.41 18.75 12 18.75Z" fill="#485FD0"/>
</g>
<g id="Group_2">
<path id="Vector_2" d="M12 22.75C11.59 22.75 11.25 22.41 11.25 22V21C11.25 20.59 11.59 20.25 12 20.25C12.41 20.25 12.75 20.59 12.75 21V22C12.75 22.41 12.41 22.75 12 22.75Z" fill="#485FD0"/>
</g>
<g id="Group_3">
<path id="Vector_3" d="M2.00009 22.7501C1.94009 22.7501 1.8801 22.7401 1.8201 22.7301C1.4201 22.6301 1.1701 22.2201 1.2701 21.8201L2.2701 17.8201C2.3701 17.4201 2.77009 17.1701 3.18009 17.2701C3.58009 17.3701 3.83009 17.7801 3.73009 18.1801L2.73009 22.1801C2.64009 22.5201 2.34009 22.7501 2.00009 22.7501Z" fill="#485FD0"/>
</g>
<g id="Group_4">
<path id="Vector_4" d="M21.9997 22.7499C21.6597 22.7499 21.3597 22.5199 21.2697 22.1799L20.2697 18.1799C20.1697 17.7799 20.4097 17.3699 20.8197 17.2699C21.2197 17.1699 21.6297 17.4099 21.7297 17.8199L22.7297 21.8199C22.8297 22.2199 22.5897 22.6299 22.1797 22.7299C22.1197 22.7399 22.0597 22.7499 21.9997 22.7499Z" fill="#485FD0"/>
</g>
<g id="Group_5">
<path id="Vector_5" opacity="0.4" d="M19.2602 9.52008C19.1502 8.34008 18.8402 7.09009 16.5502 7.09009H7.45024C5.16024 7.09009 4.85024 8.35008 4.74024 9.52008L4.34024 13.86C4.29024 14.4 4.47024 14.94 4.84024 15.35C5.22024 15.76 5.76025 16.0001 6.32025 16.0001H7.66024C8.81024 16.0001 9.03023 15.3401 9.18023 14.9001L9.32025 14.47C9.48025 13.98 9.52024 13.86 10.1702 13.86H13.8202C14.4602 13.86 14.4802 13.93 14.6702 14.47L14.8102 14.9001C14.9602 15.3401 15.1802 16.0001 16.3302 16.0001H17.6702C18.2302 16.0001 18.7702 15.76 19.1502 15.35C19.5202 14.95 19.7002 14.4 19.6502 13.86L19.2602 9.52008Z" fill="#485FD0"/>
<path id="Vector_6" d="M18.4198 4.94H17.7098C17.6998 4.94 17.6998 4.94 17.6998 4.94L17.4298 3.65002C17.1698 2.40002 16.6398 1.25 14.5098 1.25H12.5398H11.4698H9.4998C7.3698 1.25 6.8398 2.40002 6.5798 3.65002L6.3098 4.94C6.2998 4.94 6.2998 4.94 6.2998 4.94H5.5898C5.2898 4.94 5.0498 5.17998 5.0498 5.47998C5.0498 5.77998 5.2898 6.02002 5.5898 6.02002H6.09981L5.7998 7.45001C6.1898 7.23001 6.71981 7.09003 7.45981 7.09003H16.5598C17.2998 7.09003 17.8398 7.23001 18.2198 7.45001L17.9198 6.02002H18.4298C18.7298 6.02002 18.9698 5.77998 18.9698 5.47998C18.9598 5.17998 18.7198 4.94 18.4198 4.94Z" fill="#485FD0"/>
<g id="Group_6">
<path id="Vector_7" d="M9.86067 11.0099H7.72067C7.42067 11.0099 7.18066 10.7699 7.18066 10.4699C7.18066 10.1699 7.42067 9.92993 7.72067 9.92993H9.86067C10.1607 9.92993 10.4007 10.1699 10.4007 10.4699C10.3907 10.7699 10.1507 11.0099 9.86067 11.0099Z" fill="#485FD0"/>
</g>
<g id="Group_7">
<path id="Vector_8" d="M16.2806 11.0099H14.1406C13.8406 11.0099 13.6006 10.7699 13.6006 10.4699C13.6006 10.1699 13.8406 9.92993 14.1406 9.92993H16.2806C16.5806 9.92993 16.8206 10.1699 16.8206 10.4699C16.8206 10.7699 16.5806 11.0099 16.2806 11.0099Z" fill="#485FD0"/>
</g>
</g>
</g>
</g>
</svg>
