<svg width="16" height="16" viewBox="0 0 16 16" fill="none" xmlns="http://www.w3.org/2000/svg">
<g id="vuesax/outline/document-text">
<g id="document-text">
<path id="Vector" d="M9.99967 15.1667H5.99967C2.37967 15.1667 0.833008 13.62 0.833008 10V6.00004C0.833008 2.38004 2.37967 0.833374 5.99967 0.833374H9.33301C9.60634 0.833374 9.83301 1.06004 9.83301 1.33337C9.83301 1.60671 9.60634 1.83337 9.33301 1.83337H5.99967C2.92634 1.83337 1.83301 2.92671 1.83301 6.00004V10C1.83301 13.0734 2.92634 14.1667 5.99967 14.1667H9.99967C13.073 14.1667 14.1663 13.0734 14.1663 10V6.66671C14.1663 6.39337 14.393 6.16671 14.6663 6.16671C14.9397 6.16671 15.1663 6.39337 15.1663 6.66671V10C15.1663 13.62 13.6197 15.1667 9.99967 15.1667Z" fill="#030527"/>
<path id="Vector_2" d="M14.6663 7.1667H11.9997C9.71967 7.1667 8.83301 6.28003 8.83301 4.00003V1.33337C8.83301 1.13337 8.95301 0.9467 9.13967 0.873366C9.32634 0.793366 9.53967 0.840033 9.68634 0.980033L15.0197 6.31337C15.1597 6.45337 15.2063 6.67337 15.1263 6.86003C15.0463 7.0467 14.8663 7.1667 14.6663 7.1667ZM9.83301 2.54003V4.00003C9.83301 5.72003 10.2797 6.1667 11.9997 6.1667H13.4597L9.83301 2.54003Z" fill="#030527"/>
<path id="Vector_3" d="M8.66699 9.16663H4.66699C4.39366 9.16663 4.16699 8.93996 4.16699 8.66663C4.16699 8.39329 4.39366 8.16663 4.66699 8.16663H8.66699C8.94033 8.16663 9.16699 8.39329 9.16699 8.66663C9.16699 8.93996 8.94033 9.16663 8.66699 9.16663Z" fill="#030527"/>
<path id="Vector_4" d="M7.33366 11.8334H4.66699C4.39366 11.8334 4.16699 11.6067 4.16699 11.3334C4.16699 11.06 4.39366 10.8334 4.66699 10.8334H7.33366C7.60699 10.8334 7.83366 11.06 7.83366 11.3334C7.83366 11.6067 7.60699 11.8334 7.33366 11.8334Z" fill="#030527"/>
</g>
</g>
</svg>
