<svg width="24" height="25" viewBox="0 0 24 25" fill="none" xmlns="http://www.w3.org/2000/svg">
<g id="vuesax/outline/key">
<g id="key">
<path id="Vector" d="M6.17916 23.6926C6.07916 23.6926 5.96916 23.6826 5.87916 23.6726L3.70916 23.3726C2.66916 23.2326 1.72916 22.3025 1.56916 21.2425L1.26916 19.0526C1.16916 18.3526 1.46916 17.4426 1.96916 16.9326L6.35916 12.5426C5.64916 9.70255 6.46916 6.70255 8.55916 4.63255C11.7992 1.40255 17.0692 1.39255 20.3192 4.63255C21.8892 6.20255 22.7492 8.29255 22.7492 10.5126C22.7492 12.7326 21.8892 14.8226 20.3192 16.3926C18.2192 18.4725 15.2292 19.2925 12.4092 18.5725L8.00916 22.9626C7.58916 23.4026 6.83916 23.6926 6.17916 23.6926ZM14.4292 3.70255C12.6792 3.70255 10.9392 4.36255 9.60916 5.69255C7.80916 7.48255 7.15916 10.1026 7.90916 12.5426C7.98916 12.8126 7.91916 13.0926 7.71916 13.2926L3.01916 17.9925C2.84916 18.1625 2.70916 18.6026 2.73916 18.8326L3.03916 21.0226C3.09916 21.4025 3.50916 21.8326 3.88916 21.8826L6.06916 22.1826C6.30916 22.2226 6.74916 22.0826 6.91916 21.9125L11.6392 17.2026C11.8392 17.0026 12.1292 16.9426 12.3892 17.0226C14.7992 17.7826 17.4292 17.1326 19.2292 15.3326C20.5092 14.0526 21.2192 12.3326 21.2192 10.5126C21.2192 8.68255 20.5092 6.97255 19.2292 5.69255C17.9292 4.37255 16.1792 3.70255 14.4292 3.70255Z" fill="black"/>
<path id="Vector_2" d="M9.19008 21.4826C9.00008 21.4826 8.81008 21.4126 8.66008 21.2626L6.36008 18.9626C6.07008 18.6726 6.07008 18.1926 6.36008 17.9026C6.65008 17.6126 7.13008 17.6126 7.42008 17.9026L9.72008 20.2026C10.0101 20.4926 10.0101 20.9726 9.72008 21.2626C9.57008 21.4126 9.38008 21.4826 9.19008 21.4826Z" fill="black"/>
<path id="Vector_3" d="M14.5 12.6925C13.26 12.6925 12.25 11.6825 12.25 10.4425C12.25 9.2025 13.26 8.1925 14.5 8.1925C15.74 8.1925 16.75 9.2025 16.75 10.4425C16.75 11.6825 15.74 12.6925 14.5 12.6925ZM14.5 9.6925C14.09 9.6925 13.75 10.0325 13.75 10.4425C13.75 10.8525 14.09 11.1925 14.5 11.1925C14.91 11.1925 15.25 10.8525 15.25 10.4425C15.25 10.0325 14.91 9.6925 14.5 9.6925Z" fill="black"/>
</g>
</g>
</svg>
