<svg width="16" height="16" viewBox="0 0 16 16" fill="none" xmlns="http://www.w3.org/2000/svg">
<g id="fluent:top-speed-24-regular">
<path id="Vector" d="M4.36167 3.65537C5.24924 2.90988 6.34494 2.45596 7.49967 2.35537V3.50004C7.49967 3.63265 7.55235 3.75983 7.64612 3.85359C7.73989 3.94736 7.86707 4.00004 7.99967 4.00004C8.13228 4.00004 8.25946 3.94736 8.35323 3.85359C8.447 3.75983 8.49967 3.63265 8.49967 3.50004V2.35537C9.85323 2.47532 11.1186 3.07767 12.0652 4.05262C13.0117 5.02757 13.5764 6.3102 13.6563 7.66671H12.4997C12.3671 7.66671 12.2399 7.71939 12.1461 7.81315C12.0524 7.90692 11.9997 8.0341 11.9997 8.16671C11.9997 8.29932 12.0524 8.42649 12.1461 8.52026C12.2399 8.61403 12.3671 8.66671 12.4997 8.66671H13.629C13.4557 10.208 12.6803 11.4987 11.517 12.4454C11.4141 12.5292 11.3487 12.6504 11.3352 12.7825C11.3217 12.9145 11.3612 13.0465 11.445 13.1494C11.5288 13.2523 11.6501 13.3177 11.7821 13.3312C11.9141 13.3447 12.0461 13.3052 12.149 13.2214C13.633 12.0127 14.5957 10.292 14.6623 8.23137C14.6659 8.19683 14.6668 8.16206 14.665 8.12737L14.6663 8.00004C14.6663 4.31804 11.6817 1.33337 7.99967 1.33337C4.31767 1.33337 1.33301 4.31804 1.33301 8.00004C1.33301 10.168 2.34834 11.9694 3.84634 13.2174C3.94859 13.2985 4.07852 13.3364 4.20836 13.3231C4.33821 13.3097 4.45767 13.2461 4.54123 13.1458C4.6248 13.0455 4.66583 12.9165 4.65558 12.7864C4.64532 12.6563 4.58458 12.5353 4.48634 12.4494C3.34634 11.4987 2.55101 10.2047 2.37167 8.66671H3.49967C3.63228 8.66671 3.75946 8.61403 3.85323 8.52026C3.947 8.42649 3.99967 8.29932 3.99967 8.16671C3.99967 8.0341 3.947 7.90692 3.85323 7.81315C3.75946 7.71939 3.63228 7.66671 3.49967 7.66671H2.34234C2.41567 6.41204 2.89634 5.26671 3.65501 4.36204L4.47967 5.18671C4.57446 5.27503 4.69982 5.32311 4.82936 5.32082C4.95889 5.31854 5.08248 5.26606 5.17409 5.17446C5.2657 5.08285 5.31817 4.95926 5.32046 4.82972C5.32274 4.70019 5.27466 4.57482 5.18634 4.48004L4.36167 3.65537ZM11.173 4.42271C11.0955 4.36304 11 4.33152 10.9023 4.33334C10.8045 4.33516 10.7102 4.3702 10.635 4.43271L10.4897 4.55471C9.96551 4.9949 9.44306 5.43712 8.92234 5.88137C8.48501 6.25471 8.03767 6.64137 7.68034 6.95671C7.52564 7.09271 7.37252 7.23049 7.22101 7.37004C7.12213 7.4586 7.02863 7.55299 6.94101 7.65271C6.83761 7.78 6.76083 7.92676 6.71523 8.08428C6.66962 8.2418 6.65612 8.40688 6.67552 8.56972C6.69492 8.73257 6.74682 8.88985 6.82816 9.03225C6.90949 9.17466 7.0186 9.29927 7.14901 9.39871C7.41459 9.60348 7.74952 9.69672 8.08271 9.65863C8.41591 9.62055 8.72115 9.45413 8.93367 9.19471C8.99234 9.12271 9.07034 8.99737 9.15034 8.86337C9.23567 8.72004 9.34034 8.53671 9.45634 8.33137C9.68768 7.91804 9.96834 7.40337 10.2397 6.90137C10.5619 6.30336 10.8817 5.70402 11.199 5.10337L11.2863 4.93737C11.3316 4.8521 11.3451 4.75349 11.3243 4.6592C11.3036 4.56491 11.2499 4.48108 11.173 4.42271Z" fill="#030527"/>
</g>
</svg>
