<svg width="25" height="24" viewBox="0 0 25 24" fill="none" xmlns="http://www.w3.org/2000/svg">
<g id="vuesax/bulk/slider-vertical">
<g id="slider-vertical">
<path id="Vector" d="M19.6066 3.5H5.72656C5.31656 3.5 4.97656 3.16 4.97656 2.75C4.97656 2.34 5.31656 2 5.72656 2H19.6066C20.0166 2 20.3566 2.34 20.3566 2.75C20.3566 3.16 20.0166 3.5 19.6066 3.5Z" fill="#485FD0"/>
<path id="Vector_2" d="M19.6066 22H5.72656C5.31656 22 4.97656 21.66 4.97656 21.25C4.97656 20.84 5.31656 20.5 5.72656 20.5H19.6066C20.0166 20.5 20.3566 20.84 20.3566 21.25C20.3566 21.66 20.0166 22 19.6066 22Z" fill="#485FD0"/>
<path id="Vector_3" opacity="0.4" d="M3.41699 7.6001V16.4001C3.41699 18.0601 4.75699 19.4001 6.41699 19.4001H18.917C20.577 19.4001 21.917 18.0601 21.917 16.4001V7.6001C21.917 5.9401 20.577 4.6001 18.917 4.6001H6.41699C4.75699 4.6001 3.41699 5.9401 3.41699 7.6001Z" fill="#485FD0"/>
</g>
</g>
</svg>
