<svg width="16" height="16" viewBox="0 0 16 16" fill="none" xmlns="http://www.w3.org/2000/svg">
<g id="ticket-discount">
<g id="vuesax/linear/ticket-discount">
<g id="ticket-discount_2">
<path id="Vector" d="M13.0007 8.33268C13.0007 7.41268 13.7473 6.66602 14.6673 6.66602V5.99935C14.6673 3.33268 14.0007 2.66602 11.334 2.66602H4.66732C2.00065 2.66602 1.33398 3.33268 1.33398 5.99935V6.33268C2.25398 6.33268 3.00065 7.07935 3.00065 7.99935C3.00065 8.91935 2.25398 9.66602 1.33398 9.66602V9.99935C1.33398 12.666 2.00065 13.3327 4.66732 13.3327H11.334C14.0007 13.3327 14.6673 12.666 14.6673 9.99935C13.7473 9.99935 13.0007 9.25268 13.0007 8.33268Z" stroke="#3664A9" stroke-linecap="round" stroke-linejoin="round"/>
<path id="Vector_2" d="M6 9.83398L10 5.83398" stroke="#3664A9" stroke-linecap="round" stroke-linejoin="round"/>
<path id="Vector_3" d="M9.99569 9.83333H10.0017" stroke="#3664A9" stroke-linecap="round" stroke-linejoin="round"/>
<path id="Vector_4" d="M5.99569 6.16732H6.00168" stroke="#3664A9" stroke-linecap="round" stroke-linejoin="round"/>
</g>
</g>
</g>
</svg>
