<svg width="24" height="25" viewBox="0 0 24 25" fill="none" xmlns="http://www.w3.org/2000/svg">
<g id="Speed">
<g id="Group">
<path id="Vector" d="M12 21.9713C16.9706 21.9713 21 17.9418 21 12.9713C21 8.00069 16.9706 3.97125 12 3.97125C7.02944 3.97125 3 8.00069 3 12.9713C3 17.9418 7.02944 21.9713 12 21.9713Z" stroke="#0F172A" stroke-width="1.5" stroke-linecap="round" stroke-linejoin="round"/>
<path id="Vector_2" d="M12 13.9713C12.5523 13.9713 13 13.5235 13 12.9713C13 12.419 12.5523 11.9713 12 11.9713C11.4477 11.9713 11 12.419 11 12.9713C11 13.5235 11.4477 13.9713 12 13.9713Z" stroke="#0F172A" stroke-width="1.5" stroke-linecap="round" stroke-linejoin="round"/>
<path id="Vector_3" d="M13.41 11.5613L16 8.97125M7 12.9713C7 11.6452 7.52678 10.3734 8.46447 9.43572C9.40215 8.49804 10.6739 7.97125 12 7.97125" stroke="#0F172A" stroke-width="1.5" stroke-linecap="round" stroke-linejoin="round"/>
</g>
</g>
</svg>
