<svg width="13" height="12" viewBox="0 0 13 12" fill="none" xmlns="http://www.w3.org/2000/svg">
<g id="Star">
<path id="Union" d="M5.75105 1.8019C6.11878 1.06197 7.17432 1.06197 7.54206 1.8019L8.37625 3.4804C8.52245 3.77457 8.8038 3.97818 9.12893 4.0251L10.9827 4.29259C11.8051 4.41126 12.1324 5.42295 11.5354 6.00085L10.2029 7.29066C9.96524 7.52072 9.85671 7.85342 9.91301 8.17937L10.2288 10.0076C10.3697 10.8236 9.5146 11.4475 8.78056 11.0643L7.10935 10.1918C6.81939 10.0404 6.47372 10.0404 6.18375 10.1918L4.51255 11.0643C3.77851 11.4475 2.92341 10.8236 3.06433 10.0076L3.3801 8.17937C3.4364 7.85342 3.32787 7.52072 3.0902 7.29066L1.75773 6.00085C1.16072 5.42295 1.48804 4.41126 2.31043 4.29259L4.16417 4.0251C4.4893 3.97818 4.77066 3.77457 4.91686 3.4804L5.75105 1.8019Z" fill="#FFCB45"/>
</g>
</svg>
