<svg width="24" height="25" viewBox="0 0 24 25" fill="none" xmlns="http://www.w3.org/2000/svg">
<g id="vuesax/outline/truck-time">
<g id="truck-time">
<path id="Vector" d="M13 15.6925H2C1.59 15.6925 1.25 15.3525 1.25 14.9425V8.5625C1.25 8.2425 1.44999 7.96248 1.73999 7.85248C2.03999 7.74248 2.37001 7.83251 2.57001 8.07251C3.18001 8.80251 4.13001 9.2125 5.07001 9.1825C5.87001 9.1625 6.60998 8.86252 7.16998 8.33252C7.42998 8.11252 7.63999 7.8525 7.79999 7.5625C8.10999 7.0325 8.26 6.45249 8.25 5.86249C8.23 4.94249 7.83002 4.10249 7.15002 3.49249C6.91002 3.28249 6.83 2.95248 6.94 2.66248C7.05 2.37248 7.33001 2.17249 7.64001 2.17249H15C15.41 2.17249 15.75 2.51249 15.75 2.92249V12.9225C15.75 14.4625 14.52 15.6925 13 15.6925ZM2.75 14.1925H13C13.69 14.1925 14.25 13.6325 14.25 12.9425V3.6925H9.19C9.54 4.3425 9.73 5.07252 9.75 5.83252C9.77 6.70252 9.54998 7.5625 9.10999 8.3125C8.86999 8.7425 8.53999 9.15251 8.17999 9.45251C7.37999 10.2125 6.27999 10.6625 5.10999 10.6925C4.27999 10.7225 3.46001 10.5125 2.76001 10.1325V14.1925H2.75Z" fill="#292D32"/>
<path id="Vector_2" d="M19 21.6925H18C17.59 21.6925 17.25 21.3525 17.25 20.9425C17.25 20.2525 16.69 19.6925 16 19.6925C15.31 19.6925 14.75 20.2525 14.75 20.9425C14.75 21.3525 14.41 21.6925 14 21.6925H10C9.59 21.6925 9.25 21.3525 9.25 20.9425C9.25 20.2525 8.69 19.6925 8 19.6925C7.31 19.6925 6.75 20.2525 6.75 20.9425C6.75 21.3525 6.41 21.6925 6 21.6925H5C2.93 21.6925 1.25 20.0125 1.25 17.9425V14.9425C1.25 14.5325 1.59 14.1925 2 14.1925H13C13.69 14.1925 14.25 13.6325 14.25 12.9425V5.9425C14.25 5.5325 14.59 5.1925 15 5.1925H16.84C17.83 5.1925 18.74 5.72252 19.23 6.58252L20.94 9.57251C21.07 9.80251 21.07 10.0925 20.94 10.3225C20.81 10.5525 20.56 10.6925 20.29 10.6925H19C18.86 10.6925 18.75 10.8025 18.75 10.9425V13.9425C18.75 14.0825 18.86 14.1925 19 14.1925H22C22.41 14.1925 22.75 14.5325 22.75 14.9425V17.9425C22.75 20.0125 21.07 21.6925 19 21.6925ZM18.65 20.1925H19C20.24 20.1925 21.25 19.1825 21.25 17.9425V15.6925H19C18.04 15.6925 17.25 14.9025 17.25 13.9425V10.9425C17.25 9.9825 18.03 9.1925 19 9.1925L17.93 7.32251C17.71 6.93251 17.29 6.6925 16.84 6.6925H15.75V12.9425C15.75 14.4625 14.52 15.6925 13 15.6925H2.75V17.9425C2.75 19.1825 3.76 20.1925 5 20.1925H5.34998C5.67998 19.0425 6.74 18.1925 8 18.1925C9.26 18.1925 10.32 19.0425 10.65 20.1925H13.36C13.69 19.0425 14.75 18.1925 16.01 18.1925C17.27 18.1925 18.32 19.0425 18.65 20.1925Z" fill="#292D32"/>
<path id="Vector_3" d="M8 23.6925C6.48 23.6925 5.25 22.4625 5.25 20.9425C5.25 19.4225 6.48 18.1925 8 18.1925C9.52 18.1925 10.75 19.4225 10.75 20.9425C10.75 22.4625 9.52 23.6925 8 23.6925ZM8 19.6925C7.31 19.6925 6.75 20.2525 6.75 20.9425C6.75 21.6325 7.31 22.1925 8 22.1925C8.69 22.1925 9.25 21.6325 9.25 20.9425C9.25 20.2525 8.69 19.6925 8 19.6925Z" fill="#292D32"/>
<path id="Vector_4" d="M16 23.6925C14.48 23.6925 13.25 22.4625 13.25 20.9425C13.25 19.4225 14.48 18.1925 16 18.1925C17.52 18.1925 18.75 19.4225 18.75 20.9425C18.75 22.4625 17.52 23.6925 16 23.6925ZM16 19.6925C15.31 19.6925 14.75 20.2525 14.75 20.9425C14.75 21.6325 15.31 22.1925 16 22.1925C16.69 22.1925 17.25 21.6325 17.25 20.9425C17.25 20.2525 16.69 19.6925 16 19.6925Z" fill="#292D32"/>
<path id="Vector_5" d="M22 15.6925H19C18.04 15.6925 17.25 14.9025 17.25 13.9425V10.9425C17.25 9.9825 18.04 9.1925 19 9.1925H20.29C20.56 9.1925 20.81 9.33251 20.94 9.57251L22.65 12.5725C22.71 12.6825 22.75 12.8125 22.75 12.9425V14.9425C22.75 15.3525 22.41 15.6925 22 15.6925ZM19 10.6925C18.86 10.6925 18.75 10.8025 18.75 10.9425V13.9425C18.75 14.0825 18.86 14.1925 19 14.1925H21.25V13.1425L19.85 10.6925H19Z" fill="#292D32"/>
<path id="Vector_6" d="M5 10.6925C2.38 10.6925 0.25 8.5625 0.25 5.9425C0.25 4.4825 0.900029 3.13248 2.03003 2.23248C2.87003 1.56248 3.93 1.1925 5 1.1925C7.62 1.1925 9.75 3.3225 9.75 5.9425C9.75 7.30251 9.16 8.6025 8.13 9.5025C7.26 10.2725 6.15 10.6925 5 10.6925ZM5 2.6925C4.26 2.6925 3.55997 2.94248 2.96997 3.41248C2.19997 4.02248 1.75 4.9525 1.75 5.9425C1.75 7.7325 3.21 9.1925 5 9.1925C5.78 9.1925 6.54002 8.90251 7.15002 8.38251C7.85002 7.76251 8.25 6.8825 8.25 5.9425C8.25 4.1525 6.79 2.6925 5 2.6925Z" fill="#292D32"/>
<path id="Vector_7" d="M3.99989 7.6925C3.74989 7.6925 3.49988 7.56252 3.35988 7.33252C3.14988 6.97252 3.25989 6.51249 3.61989 6.30249L4.5099 5.77252V4.6925C4.5099 4.2825 4.8499 3.9425 5.2599 3.9425C5.6699 3.9425 6.0099 4.2825 6.0099 4.6925V6.1925C6.0099 6.4525 5.86992 6.70252 5.64992 6.83252L4.39992 7.58252C4.25992 7.66252 4.12989 7.6925 3.99989 7.6925Z" fill="#292D32"/>
</g>
</g>
</svg>
