<svg width="24" height="24" viewBox="0 0 24 24" fill="none" xmlns="http://www.w3.org/2000/svg">
<g id="vuesax/outline/wallet">
<g id="wallet">
<path id="Vector" d="M3.13926 8.6306C3.55494 8.14349 4.08076 7.74746 4.70558 7.46949C4.08969 7.74627 3.55587 8.14344 3.12708 8.65098C2.38197 9.53296 2 10.6933 2 12C2 10.6165 2.42487 9.46775 3.13926 8.6306ZM20.8583 8.62853C20.2527 7.91788 19.4407 7.42611 18.4864 7.18151C19.464 7.42489 20.2624 7.92385 20.8473 8.60487C21.5682 9.44436 22 10.6024 22 12C22 10.6825 21.6125 9.51347 20.8583 8.62853ZM7 22C5.45181 22 4.21411 21.4834 3.36533 20.6347C2.51655 19.7859 2 18.5482 2 17C2 18.4548 2.47413 19.7198 3.37717 20.6228C4.28021 21.5259 5.54516 22 7 22ZM22 17C22 18.5482 21.4834 19.7859 20.6347 20.6347C19.7859 21.4834 18.5482 22 17 22C18.4548 22 19.7198 21.5259 20.6228 20.6228C21.5259 19.7198 22 18.4548 22 17Z" fill="#0F172A" stroke="#0F172A" stroke-width="1.5"/>
<path id="Vector_2" d="M6.20304 7.05624L6.18955 7.058L6.19087 7.05536C6.2001 7.03689 6.20963 7.01842 6.21944 6.99995H7.00005C6.71815 6.99995 6.45422 7.02348 6.20304 7.05624ZM7.32677 5.72258L6.59817 6.45934C6.64936 6.40171 6.70383 6.34483 6.76161 6.2889L6.7617 6.28899L6.77119 6.27947L7.37722 5.67157L7.32677 5.72258ZM16.9476 5.02521C16.9239 4.99733 16.8999 4.96976 16.8754 4.94249C16.8999 4.96972 16.924 4.9973 16.9476 5.02521ZM17.5206 5.9821C17.5179 5.97519 17.5153 5.9683 17.5126 5.96142C17.5268 5.99668 17.5404 6.03218 17.5534 6.06789L17.5206 5.9821ZM17 6.99995H17.7484L17.7508 7.04254C17.7508 7.04279 17.7508 7.04304 17.7508 7.04328C17.7509 7.04602 17.7507 7.04813 17.7505 7.04963L17.7413 7.04826C17.4911 7.01073 17.2408 6.99995 17 6.99995Z" fill="#0F172A" stroke="#0F172A" stroke-width="1.5"/>
<path id="Vector_3" d="M17 14.5C17 15.6058 17.8942 16.5 19 16.5C17.8958 16.5 17 15.6042 17 14.5ZM17 14.5C17 13.3942 17.8942 12.5 19 12.5C17.8958 12.5 17 13.3958 17 14.5Z" fill="#0F172A" stroke="#0F172A" stroke-width="1.5"/>
</g>
</g>
</svg>
