<svg width="128" height="26" viewBox="0 0 128 26" fill="none" xmlns="http://www.w3.org/2000/svg">
<path d="M15.243 12.9898L20.7019 15.8536L18.4575 19.2805L14.081 15.7234L14.6593 21.3331H10.5609L11.1049 15.7248L6.72153 19.2422L4.49902 15.7988L9.97718 12.972L4.51547 10.1494L6.76264 6.72106L11.098 10.2042L10.5609 4.66846H14.6593L14.0824 10.2603L18.4986 6.75942L20.7211 10.2028L15.243 12.9898Z" fill="#00E0A0"/>
<path d="M12.6088 25.6089C5.6563 25.6089 0 19.9526 0 13.0001C0 6.04753 5.6563 0.391235 12.6088 0.391235C19.5613 0.391235 25.2176 6.04753 25.2176 13.0001C25.2176 19.9526 19.5613 25.6089 12.6088 25.6089ZM12.6088 2.28763C6.70178 2.28763 1.89639 7.09301 1.89639 13.0001C1.89639 18.9071 6.70178 23.7125 12.6088 23.7125C18.5159 23.7125 23.3212 18.9071 23.3212 13.0001C23.3212 7.09301 18.5159 2.28763 12.6088 2.28763Z" fill="#00E0A0"/>
<path d="M53.4466 14.6582V20.8982L53.2616 21.0832H50.1717L49.9868 20.8982V11.7534C49.9868 11.4327 50.7048 11.0258 51.0377 11.0737L61.7584 11.0436C63.2492 10.6654 62.6997 8.23188 61.5419 8.23188H29.9678L31.9752 5.05022L32.3849 4.90771L62.0009 4.93101C65.4744 5.42977 67.1023 9.23214 65.458 12.274C64.8167 13.4593 63.0245 14.6596 61.6638 14.6596H53.4466V14.6582Z" fill="#420098"/>
<path d="M109.551 21.0819C109.399 20.9463 111.52 17.8715 111.862 17.7715L122.835 17.7454C124.516 17.5536 124.721 15.5174 123.248 14.8611C120.232 14.3253 115.604 15.6133 112.974 14.0129C109.522 11.9137 109.912 6.62467 113.755 5.20374C113.942 5.13386 114.677 4.8927 114.803 4.8927H127.161L127.292 5.14482L125.034 8.20454C122.103 8.41966 118.944 8.00311 116.04 8.23194C115.44 8.27853 114.704 8.358 114.314 8.85402C113.604 9.75563 114.142 11.0368 115.229 11.2656C118.75 12.0055 124.682 9.76248 126.916 13.7896C128.165 16.0436 127.583 18.8937 125.408 20.3187C125.188 20.4626 123.982 21.0819 123.824 21.0819H109.552H109.551Z" fill="#420098"/>
<path d="M91.3832 21.0825C91.079 20.3453 91.39 19.6506 91.3914 18.9203C91.3941 15.2385 90.8556 10.5167 91.2598 6.93356C91.4517 5.23174 93.3741 4.23148 94.7813 5.266C95.761 5.98673 97.4464 8.0873 98.3672 9.09441C100.353 11.2662 102.202 13.5751 104.298 15.6455C104.333 15.6619 104.483 15.355 104.483 15.3372V4.89467H107.819V19.2916C107.819 19.4519 107.497 20.1562 107.378 20.333C106.676 21.3771 105.148 21.4511 104.115 20.8934L95.0266 10.8264L94.7197 11.0114V20.8975L94.5347 21.0825H91.3832Z" fill="#420098"/>
<path d="M89.4066 21.0826H85.6371C83.4763 17.6913 81.7964 13.9958 79.7424 10.5415C79.4053 9.97555 78.8792 8.73001 78.0461 9.28633L71.3032 21.0826H67.8434L67.668 20.7866L75.5646 6.31157C76.9499 4.23568 79.8644 4.27404 81.3058 6.26087L89.408 21.0826H89.4066Z" fill="#420098"/>
<path d="M40.9725 10.8264H37.5059V21.0826H40.9725V10.8264Z" fill="#420098"/>
<path d="M65.6814 21.0826H61.7886L58.9385 17.6269L59.07 17.3761H63.0245C63.7946 18.3133 64.9963 19.5945 65.5608 20.6468C65.6416 20.7962 65.7279 20.8811 65.6814 21.0826Z" fill="#420098"/>
<path d="M78.5366 20.7305C79.5756 20.7305 80.4179 19.8882 80.4179 18.8492C80.4179 17.8102 79.5756 16.9679 78.5366 16.9679C77.4976 16.9679 76.6553 17.8102 76.6553 18.8492C76.6553 19.8882 77.4976 20.7305 78.5366 20.7305Z" fill="#00E0A0"/>
</svg>
