<svg width="59" height="40" viewBox="0 0 59 40" fill="none" xmlns="http://www.w3.org/2000/svg">
<g id="Payment Method/ApplePay">
<rect id="BASE" x="0.666992" width="58.3333" height="40" rx="5" fill="white"/>
<path id="ApplePay" fill-rule="evenodd" clip-rule="evenodd" d="M14.5769 14.8891C15.3603 14.9552 16.1437 14.4926 16.6334 13.9061C17.1148 13.3031 17.4331 12.4935 17.3515 11.6675C16.6578 11.7005 15.801 12.1301 15.3114 12.7331C14.8625 13.2535 14.479 14.0961 14.5769 14.8891ZM23.8962 25.5287V12.6506H28.6701C31.1345 12.6506 32.8564 14.3687 32.8564 16.8799C32.8564 19.3911 31.1019 21.1258 28.6048 21.1258H25.8711V25.5287H23.8962ZM17.3433 15.0458C16.6532 15.0056 16.0234 15.2559 15.5148 15.4581C15.1874 15.5882 14.9102 15.6984 14.6994 15.6984C14.4627 15.6984 14.1741 15.5823 13.85 15.452C13.4253 15.2812 12.9399 15.086 12.4308 15.0954C11.2638 15.1119 10.1785 15.781 9.58276 16.8466C8.3587 18.9778 9.26451 22.1333 10.4478 23.868C11.0272 24.7271 11.7208 25.6688 12.6348 25.6358C13.0369 25.6204 13.3261 25.4962 13.6254 25.3676C13.9701 25.2196 14.3281 25.0658 14.887 25.0658C15.4267 25.0658 15.769 25.2155 16.0976 25.3593C16.4101 25.496 16.7102 25.6273 17.1556 25.6192C18.1023 25.6027 18.698 24.7601 19.2774 23.9011C19.9026 22.979 20.1774 22.0792 20.2191 21.9426L20.2191 21.9426L20.224 21.9268C20.223 21.9258 20.2153 21.9222 20.2016 21.9159L20.2016 21.9159C19.9926 21.819 18.395 21.0787 18.3797 19.0934C18.3643 17.4271 19.6469 16.5829 19.8488 16.4499L19.8488 16.4499C19.861 16.4419 19.8693 16.4364 19.8731 16.4336C19.057 15.211 17.784 15.0788 17.3433 15.0458ZM36.4634 25.6277C37.7038 25.6277 38.8544 24.9916 39.3767 23.9838H39.4175V25.5285H41.2454V19.1184C41.2454 17.2598 39.7765 16.062 37.5161 16.062C35.4189 16.062 33.8684 17.2763 33.8113 18.9449H35.5902C35.7371 18.1519 36.4634 17.6315 37.459 17.6315C38.6667 17.6315 39.344 18.2015 39.344 19.2506V19.961L36.8796 20.1097C34.5865 20.2501 33.3461 21.2 33.3461 22.8521C33.3461 24.5208 34.6273 25.6277 36.4634 25.6277ZM36.9938 24.0998C35.9411 24.0998 35.272 23.5877 35.272 22.8029C35.272 21.9934 35.9166 21.5226 37.1489 21.4482L39.344 21.3078V22.0347C39.344 23.2407 38.3321 24.0998 36.9938 24.0998ZM47.3084 26.0322C46.5168 28.2873 45.611 29.0308 43.6852 29.0308C43.5383 29.0308 43.0487 29.0143 42.9344 28.9812V27.4365C43.0568 27.453 43.3588 27.4695 43.5138 27.4695C44.387 27.4695 44.8766 27.0978 45.1785 26.1313L45.3581 25.5614L42.0123 16.1857H44.0769L46.4026 23.7936H46.4434L48.7691 16.1857H50.7766L47.3084 26.0322ZM25.8709 14.3351H28.1477C29.8614 14.3351 30.8406 15.2603 30.8406 16.8876C30.8406 18.5149 29.8614 19.4484 28.1395 19.4484H25.8709V14.3351Z" fill="black"/>
</g>
</svg>
