<svg width="38" height="24" viewBox="0 0 38 24" fill="none" xmlns="http://www.w3.org/2000/svg">
<g id="Mastercard">
<path id="Left" fill-rule="evenodd" clip-rule="evenodd" d="M18.9161 20.5935C16.9301 22.3074 14.354 23.342 11.539 23.342C5.25786 23.342 0.166016 18.191 0.166016 11.837C0.166016 5.48298 5.25786 0.332031 11.539 0.332031C14.354 0.332031 16.9301 1.36664 18.9161 3.08047C20.902 1.36664 23.4782 0.332031 26.2932 0.332031C32.5743 0.332031 37.6661 5.48298 37.6661 11.837C37.6661 18.191 32.5743 23.342 26.2932 23.342C23.4782 23.342 20.902 22.3074 18.9161 20.5935Z" fill="#ED0006"/>
<path id="Right" fill-rule="evenodd" clip-rule="evenodd" d="M18.916 20.5935C21.3613 18.4833 22.9119 15.3433 22.9119 11.837C22.9119 8.33068 21.3613 5.1907 18.916 3.08047C20.902 1.36664 23.4781 0.332031 26.2931 0.332031C32.5742 0.332031 37.6661 5.48298 37.6661 11.837C37.6661 18.191 32.5742 23.342 26.2931 23.342C23.4781 23.342 20.902 22.3074 18.916 20.5935Z" fill="#F9A000"/>
<path id="Middle" fill-rule="evenodd" clip-rule="evenodd" d="M18.9167 20.5946C21.362 18.4844 22.9126 15.3444 22.9126 11.8381C22.9126 8.33175 21.362 5.19177 18.9167 3.08154C16.4714 5.19177 14.9209 8.33175 14.9209 11.8381C14.9209 15.3444 16.4714 18.4844 18.9167 20.5946Z" fill="#FF5E00"/>
</g>
</svg>
