<svg width="24" height="24" viewBox="0 0 24 24" fill="none" xmlns="http://www.w3.org/2000/svg">
<g id="Group 1000001063">
<path id="Vector" d="M12.1669 23.6659C18.6104 23.6659 23.8339 18.4425 23.8339 11.999C23.8339 5.5555 18.6104 0.332031 12.1669 0.332031C5.72347 0.332031 0.5 5.5555 0.5 11.999C0.5 18.4425 5.72347 23.6659 12.1669 23.6659Z" fill="#5AFEAE"/>
<g id="Group">
<path id="Vector_2" d="M15.5923 16.0597C15.1813 16.2621 14.7294 16.3671 14.2712 16.365C13.2843 16.365 12.7245 16.2071 12.6632 15.4098V15.3562C12.6632 15.3245 12.6597 15.2963 12.6597 15.2596V12.9368L12.6632 12.6633V11.0257H12.6597V10.3299L12.6632 10.0543V8.47305L10.2156 8.79592C11.8708 8.47587 12.8211 7.16607 12.8211 5.8605V5.05615H10.0711V8.81636L9.91602 8.86007V15.8243C10.007 17.7805 11.2956 18.9437 13.4112 18.9437C14.1591 18.9437 14.9825 18.7738 15.6127 18.4876L15.6268 18.482V16.0393L15.5916 16.0604V16.0597H15.5923Z" fill="#0F1B31"/>
<path id="Vector_3" d="M16.0257 7.90918L8.30859 9.09843V11.0554L16.0257 9.86612V7.90918Z" fill="#292929"/>
<path id="Vector_4" d="M16.0257 10.7725L8.30859 11.9617V13.8312L16.0257 12.6413V10.7725Z" fill="#292929"/>
</g>
</g>
</svg>
