<svg width="59" height="40" viewBox="0 0 59 40" fill="none" xmlns="http://www.w3.org/2000/svg">
<g id="Payment Method/Visa">
<rect id="BASE" width="58.3333" height="40" rx="5" fill="white"/>
<path id="visa-logo" fill-rule="evenodd" clip-rule="evenodd" d="M17.7088 27.0977H14.1749L11.5249 16.988C11.3991 16.5229 11.1321 16.1118 10.7392 15.918C9.75885 15.431 8.67853 15.0435 7.5 14.848V14.4588H13.1928C13.9785 14.4588 14.5677 15.0435 14.6659 15.7225L16.0409 23.0151L19.573 14.4588H23.0087L17.7088 27.0977ZM24.9728 27.0977H21.6353L24.3835 14.4588H27.721L24.9728 27.0977ZM32.0389 17.9603C32.1371 17.2796 32.7263 16.8904 33.4138 16.8904C34.4941 16.7927 35.6709 16.9881 36.653 17.4734L37.2423 14.7522C36.2602 14.3629 35.1799 14.1675 34.1995 14.1675C30.9603 14.1675 28.6032 15.9182 28.6032 18.3479C28.6032 20.1963 30.2728 21.1668 31.4513 21.7515C32.7263 22.3345 33.2174 22.7237 33.1192 23.3067C33.1192 24.1812 32.1371 24.5705 31.1567 24.5705C29.9781 24.5705 28.7996 24.279 27.721 23.792L27.1318 26.5149C28.3103 27.0002 29.5853 27.1956 30.7638 27.1956C34.3959 27.2917 36.653 25.5427 36.653 22.9175C36.653 19.6116 32.0389 19.4178 32.0389 17.9603ZM48.3332 27.0977L45.6832 14.4588H42.8368C42.2476 14.4588 41.6583 14.848 41.4619 15.431L36.5548 27.0977H39.9904L40.6762 25.251H44.8975L45.2904 27.0977H48.3332ZM43.3279 17.8621L44.3082 22.6255H41.5601L43.3279 17.8621Z" fill="#172B85"/>
</g>
</svg>
